%TF.GenerationSoftware,KiCad,Pcbnew,(6.0.1)*%
%TF.CreationDate,2022-07-02T10:53:45-04:00*%
%TF.ProjectId,B39431R0960H110-breakout,42333934-3331-4523-9039-363048313130,1*%
%TF.SameCoordinates,Original*%
%TF.FileFunction,Copper,L1,Top*%
%TF.FilePolarity,Positive*%
%FSLAX46Y46*%
G04 Gerber Fmt 4.6, Leading zero omitted, Abs format (unit mm)*
G04 Created by KiCad (PCBNEW (6.0.1)) date 2022-07-02 10:53:45*
%MOMM*%
%LPD*%
G01*
G04 APERTURE LIST*
G04 Aperture macros list*
%AMRoundRect*
0 Rectangle with rounded corners*
0 $1 Rounding radius*
0 $2 $3 $4 $5 $6 $7 $8 $9 X,Y pos of 4 corners*
0 Add a 4 corners polygon primitive as box body*
4,1,4,$2,$3,$4,$5,$6,$7,$8,$9,$2,$3,0*
0 Add four circle primitives for the rounded corners*
1,1,$1+$1,$2,$3*
1,1,$1+$1,$4,$5*
1,1,$1+$1,$6,$7*
1,1,$1+$1,$8,$9*
0 Add four rect primitives between the rounded corners*
20,1,$1+$1,$2,$3,$4,$5,0*
20,1,$1+$1,$4,$5,$6,$7,0*
20,1,$1+$1,$6,$7,$8,$9,0*
20,1,$1+$1,$8,$9,$2,$3,0*%
G04 Aperture macros list end*
%TA.AperFunction,SMDPad,CuDef*%
%ADD10R,1.500000X0.700000*%
%TD*%
%TA.AperFunction,SMDPad,CuDef*%
%ADD11R,0.700000X1.200000*%
%TD*%
%TA.AperFunction,SMDPad,CuDef*%
%ADD12R,0.700000X1.950000*%
%TD*%
%TA.AperFunction,SMDPad,CuDef*%
%ADD13R,1.350000X1.600000*%
%TD*%
%TA.AperFunction,SMDPad,CuDef*%
%ADD14RoundRect,0.147500X0.172500X-0.147500X0.172500X0.147500X-0.172500X0.147500X-0.172500X-0.147500X0*%
%TD*%
%TA.AperFunction,ViaPad*%
%ADD15C,0.800000*%
%TD*%
%TA.AperFunction,Conductor*%
%ADD16C,0.700000*%
%TD*%
%TA.AperFunction,Conductor*%
%ADD17C,1.470000*%
%TD*%
G04 APERTURE END LIST*
D10*
%TO.P,U1,1*%
%TO.N,Net-(L1-Pad2)*%
X130550000Y-100730000D03*
%TO.P,U1,2*%
%TO.N,GND*%
X130550000Y-102000000D03*
%TO.P,U1,3*%
X130550000Y-103270000D03*
D11*
%TO.P,U1,4*%
X132200000Y-103400000D03*
D10*
%TO.P,U1,5*%
%TO.N,Net-(L2-Pad1)*%
X133850000Y-103270000D03*
%TO.P,U1,6*%
%TO.N,GND*%
X133850000Y-102000000D03*
%TO.P,U1,7*%
X133850000Y-100730000D03*
D12*
%TO.P,U1,8*%
X132200000Y-100975000D03*
%TD*%
D13*
%TO.P,J1,1,IN1*%
%TO.N,Net-(J1-Pad1)*%
X126900000Y-102000000D03*
%TO.P,J1,2,IN2*%
%TO.N,Net-(J1-Pad2)*%
X137500000Y-102000000D03*
%TD*%
D14*
%TO.P,L1,1*%
%TO.N,Net-(J1-Pad1)*%
X128700000Y-101500000D03*
%TO.P,L1,2*%
%TO.N,Net-(L1-Pad2)*%
X128700000Y-100530000D03*
%TD*%
%TO.P,L2,1*%
%TO.N,Net-(L2-Pad1)*%
X135950000Y-103485000D03*
%TO.P,L2,2*%
%TO.N,Net-(J1-Pad2)*%
X135950000Y-102515000D03*
%TD*%
D15*
%TO.N,GND*%
X130700000Y-105500000D03*
X127700000Y-104000000D03*
X132200000Y-105500000D03*
X132200000Y-98500000D03*
X136950000Y-105500000D03*
X129700000Y-98250000D03*
X136700000Y-100000000D03*
X127700000Y-105500000D03*
X133700000Y-98500000D03*
X129200000Y-105500000D03*
X135200000Y-98500000D03*
X134700000Y-105750000D03*
X136700000Y-98500000D03*
X127450000Y-98500000D03*
%TD*%
D16*
%TO.N,Net-(J1-Pad1)*%
X128200000Y-102000000D02*
X128700000Y-101500000D01*
D17*
X127200000Y-102000000D02*
X128200000Y-102000000D01*
D16*
%TO.N,Net-(J1-Pad2)*%
X136465000Y-102000000D02*
X135950000Y-102515000D01*
D17*
X137200000Y-102000000D02*
X136400000Y-102000000D01*
%TO.N,Net-(L1-Pad2)*%
X128900000Y-100000000D02*
X130450000Y-100000000D01*
%TO.N,Net-(L2-Pad1)*%
X135500000Y-104000000D02*
X133700000Y-104000000D01*
%TD*%
%TA.AperFunction,Conductor*%
%TO.N,GND*%
G36*
X137634121Y-97793002D02*
G01*
X137680614Y-97846658D01*
X137692000Y-97899000D01*
X137692000Y-100565500D01*
X137671998Y-100633621D01*
X137618342Y-100680114D01*
X137566000Y-100691500D01*
X136776866Y-100691500D01*
X136714684Y-100698255D01*
X136654012Y-100721000D01*
X136580704Y-100748482D01*
X136536474Y-100756500D01*
X136343684Y-100756500D01*
X136340897Y-100756749D01*
X136340891Y-100756749D01*
X136271727Y-100762922D01*
X136178905Y-100771206D01*
X135964799Y-100829779D01*
X135959741Y-100832191D01*
X135959737Y-100832193D01*
X135864624Y-100877560D01*
X135764449Y-100925341D01*
X135584187Y-101054872D01*
X135429713Y-101214277D01*
X135305908Y-101398518D01*
X135291523Y-101431287D01*
X135245829Y-101485621D01*
X135178011Y-101506626D01*
X135109602Y-101487632D01*
X135062322Y-101434668D01*
X135058169Y-101424868D01*
X135052306Y-101409228D01*
X135047123Y-101338421D01*
X135052306Y-101320770D01*
X135098478Y-101197606D01*
X135102105Y-101182351D01*
X135107631Y-101131486D01*
X135108000Y-101124672D01*
X135108000Y-101002115D01*
X135103525Y-100986876D01*
X135102135Y-100985671D01*
X135094452Y-100984000D01*
X134122115Y-100984000D01*
X134106876Y-100988475D01*
X134105671Y-100989865D01*
X134104000Y-100997548D01*
X134104000Y-102128000D01*
X134083998Y-102196121D01*
X134030342Y-102242614D01*
X133978000Y-102254000D01*
X133722000Y-102254000D01*
X133653879Y-102233998D01*
X133607386Y-102180342D01*
X133596000Y-102128000D01*
X133596000Y-101002115D01*
X133591525Y-100986876D01*
X133590135Y-100985671D01*
X133582452Y-100984000D01*
X133116115Y-100984000D01*
X133100876Y-100988475D01*
X133099671Y-100989865D01*
X133098000Y-100997548D01*
X133098000Y-101103000D01*
X133077998Y-101171121D01*
X133024342Y-101217614D01*
X132972000Y-101229000D01*
X132472115Y-101229000D01*
X132456876Y-101233475D01*
X132455671Y-101234865D01*
X132454000Y-101242548D01*
X132454000Y-104002464D01*
X132453791Y-104009717D01*
X132452090Y-104039217D01*
X132452765Y-104044795D01*
X132453087Y-104047456D01*
X132454000Y-104062593D01*
X132454000Y-104489884D01*
X132458475Y-104505123D01*
X132459865Y-104506328D01*
X132467548Y-104507999D01*
X132485980Y-104507999D01*
X132554101Y-104528001D01*
X132597945Y-104576209D01*
X132645835Y-104668994D01*
X132780964Y-104845097D01*
X132785109Y-104848868D01*
X132785112Y-104848872D01*
X132929453Y-104980212D01*
X132945142Y-104994488D01*
X132949898Y-104997471D01*
X132949900Y-104997473D01*
X133128425Y-105109462D01*
X133128429Y-105109464D01*
X133133181Y-105112445D01*
X133339136Y-105195238D01*
X133556498Y-105240252D01*
X133561109Y-105240518D01*
X133561110Y-105240518D01*
X133611007Y-105243395D01*
X133611011Y-105243395D01*
X133612830Y-105243500D01*
X135556316Y-105243500D01*
X135559103Y-105243251D01*
X135559109Y-105243251D01*
X135628273Y-105237078D01*
X135721095Y-105228794D01*
X135935201Y-105170221D01*
X135940259Y-105167809D01*
X135940263Y-105167807D01*
X136062585Y-105109462D01*
X136135551Y-105074659D01*
X136315813Y-104945128D01*
X136470287Y-104785723D01*
X136594092Y-104601482D01*
X136683314Y-104398229D01*
X136735132Y-104182388D01*
X136743066Y-104044795D01*
X136747587Y-103966390D01*
X136747587Y-103966387D01*
X136747910Y-103960783D01*
X136739929Y-103894832D01*
X136744020Y-103844546D01*
X136773778Y-103742117D01*
X136773779Y-103742113D01*
X136775573Y-103735937D01*
X136776077Y-103729532D01*
X136776078Y-103729527D01*
X136778307Y-103701203D01*
X136778307Y-103701195D01*
X136778500Y-103698747D01*
X136778499Y-103434499D01*
X136798501Y-103366380D01*
X136852156Y-103319887D01*
X136904499Y-103308500D01*
X137566000Y-103308500D01*
X137634121Y-103328502D01*
X137680614Y-103382158D01*
X137692000Y-103434500D01*
X137692000Y-106101000D01*
X137671998Y-106169121D01*
X137618342Y-106215614D01*
X137566000Y-106227000D01*
X126834000Y-106227000D01*
X126765879Y-106206998D01*
X126719386Y-106153342D01*
X126708000Y-106101000D01*
X126708000Y-103664669D01*
X129292001Y-103664669D01*
X129292371Y-103671490D01*
X129297895Y-103722352D01*
X129301521Y-103737604D01*
X129346676Y-103858054D01*
X129355214Y-103873649D01*
X129431715Y-103975724D01*
X129444276Y-103988285D01*
X129546351Y-104064786D01*
X129561946Y-104073324D01*
X129682394Y-104118478D01*
X129697649Y-104122105D01*
X129748514Y-104127631D01*
X129755328Y-104128000D01*
X130277885Y-104128000D01*
X130293124Y-104123525D01*
X130294329Y-104122135D01*
X130296000Y-104114452D01*
X130296000Y-104109884D01*
X130804000Y-104109884D01*
X130808475Y-104125123D01*
X130809865Y-104126328D01*
X130817548Y-104127999D01*
X131268090Y-104127999D01*
X131336211Y-104148001D01*
X131382704Y-104201657D01*
X131386072Y-104209768D01*
X131396677Y-104238056D01*
X131405214Y-104253649D01*
X131481715Y-104355724D01*
X131494276Y-104368285D01*
X131596351Y-104444786D01*
X131611946Y-104453324D01*
X131732394Y-104498478D01*
X131747649Y-104502105D01*
X131798514Y-104507631D01*
X131805328Y-104508000D01*
X131927885Y-104508000D01*
X131943124Y-104503525D01*
X131944329Y-104502135D01*
X131946000Y-104494452D01*
X131946000Y-103672115D01*
X131941525Y-103656876D01*
X131940135Y-103655671D01*
X131932452Y-103654000D01*
X131428000Y-103654000D01*
X131359879Y-103633998D01*
X131313386Y-103580342D01*
X131308747Y-103559016D01*
X131307104Y-103559498D01*
X131297525Y-103526876D01*
X131296135Y-103525671D01*
X131288452Y-103524000D01*
X130822115Y-103524000D01*
X130806876Y-103528475D01*
X130805671Y-103529865D01*
X130804000Y-103537548D01*
X130804000Y-104109884D01*
X130296000Y-104109884D01*
X130296000Y-103542115D01*
X130291525Y-103526876D01*
X130290135Y-103525671D01*
X130282452Y-103524000D01*
X129310116Y-103524000D01*
X129294877Y-103528475D01*
X129293672Y-103529865D01*
X129292001Y-103537548D01*
X129292001Y-103664669D01*
X126708000Y-103664669D01*
X126708000Y-103434500D01*
X126728002Y-103366379D01*
X126781658Y-103319886D01*
X126834000Y-103308500D01*
X127623134Y-103308500D01*
X127685316Y-103301745D01*
X127819296Y-103251518D01*
X127863526Y-103243500D01*
X128256316Y-103243500D01*
X128259103Y-103243251D01*
X128259109Y-103243251D01*
X128328273Y-103237078D01*
X128421095Y-103228794D01*
X128635201Y-103170221D01*
X128640259Y-103167809D01*
X128640263Y-103167807D01*
X128759394Y-103110984D01*
X128835551Y-103074659D01*
X129015813Y-102945128D01*
X129075516Y-102883519D01*
X129137286Y-102848519D01*
X129208172Y-102852471D01*
X129265670Y-102894120D01*
X129291522Y-102960242D01*
X129292000Y-102971204D01*
X129292000Y-102997885D01*
X129296475Y-103013124D01*
X129297865Y-103014329D01*
X129305548Y-103016000D01*
X130277885Y-103016000D01*
X130293124Y-103011525D01*
X130294329Y-103010135D01*
X130296000Y-103002452D01*
X130296000Y-101872000D01*
X130316002Y-101803879D01*
X130369658Y-101757386D01*
X130422000Y-101746000D01*
X130678000Y-101746000D01*
X130746121Y-101766002D01*
X130792614Y-101819658D01*
X130804000Y-101872000D01*
X130804000Y-102997885D01*
X130808475Y-103013124D01*
X130809865Y-103014329D01*
X130817548Y-103016000D01*
X131722000Y-103016000D01*
X131790121Y-103036002D01*
X131836614Y-103089658D01*
X131841253Y-103110984D01*
X131842896Y-103110502D01*
X131852475Y-103143124D01*
X131853865Y-103144329D01*
X131861548Y-103146000D01*
X131927885Y-103146000D01*
X131943124Y-103141525D01*
X131944329Y-103140135D01*
X131946000Y-103132452D01*
X131946000Y-100702885D01*
X132454000Y-100702885D01*
X132458475Y-100718124D01*
X132459865Y-100719329D01*
X132467548Y-100721000D01*
X132533885Y-100721000D01*
X132549124Y-100716525D01*
X132550329Y-100715135D01*
X132552000Y-100707452D01*
X132552000Y-100602000D01*
X132572002Y-100533879D01*
X132625658Y-100487386D01*
X132678000Y-100476000D01*
X133577885Y-100476000D01*
X133593124Y-100471525D01*
X133594329Y-100470135D01*
X133596000Y-100462452D01*
X133596000Y-100457885D01*
X134104000Y-100457885D01*
X134108475Y-100473124D01*
X134109865Y-100474329D01*
X134117548Y-100476000D01*
X135089884Y-100476000D01*
X135105123Y-100471525D01*
X135106328Y-100470135D01*
X135107999Y-100462452D01*
X135107999Y-100335331D01*
X135107629Y-100328510D01*
X135102105Y-100277648D01*
X135098479Y-100262396D01*
X135053324Y-100141946D01*
X135044786Y-100126351D01*
X134968285Y-100024276D01*
X134955724Y-100011715D01*
X134853649Y-99935214D01*
X134838054Y-99926676D01*
X134717606Y-99881522D01*
X134702351Y-99877895D01*
X134651486Y-99872369D01*
X134644672Y-99872000D01*
X134122115Y-99872000D01*
X134106876Y-99876475D01*
X134105671Y-99877865D01*
X134104000Y-99885548D01*
X134104000Y-100457885D01*
X133596000Y-100457885D01*
X133596000Y-99890116D01*
X133591525Y-99874877D01*
X133590135Y-99873672D01*
X133582452Y-99872001D01*
X133131910Y-99872001D01*
X133063789Y-99851999D01*
X133017296Y-99798343D01*
X133013928Y-99790232D01*
X133003323Y-99761944D01*
X132994786Y-99746351D01*
X132918285Y-99644276D01*
X132905724Y-99631715D01*
X132803649Y-99555214D01*
X132788054Y-99546676D01*
X132667606Y-99501522D01*
X132652351Y-99497895D01*
X132601486Y-99492369D01*
X132594672Y-99492000D01*
X132472115Y-99492000D01*
X132456876Y-99496475D01*
X132455671Y-99497865D01*
X132454000Y-99505548D01*
X132454000Y-100702885D01*
X131946000Y-100702885D01*
X131946000Y-99510116D01*
X131941525Y-99494877D01*
X131940135Y-99493672D01*
X131932452Y-99492001D01*
X131805331Y-99492001D01*
X131798510Y-99492371D01*
X131747648Y-99497895D01*
X131732400Y-99501520D01*
X131719751Y-99506262D01*
X131648943Y-99511445D01*
X131586574Y-99477525D01*
X131563554Y-99446070D01*
X131506736Y-99335987D01*
X131506735Y-99335986D01*
X131504165Y-99331006D01*
X131369036Y-99154903D01*
X131364891Y-99151132D01*
X131364888Y-99151128D01*
X131209011Y-99009291D01*
X131204858Y-99005512D01*
X131073207Y-98922927D01*
X131021575Y-98890538D01*
X131021571Y-98890536D01*
X131016819Y-98887555D01*
X130810864Y-98804762D01*
X130593502Y-98759748D01*
X130588891Y-98759482D01*
X130588890Y-98759482D01*
X130538993Y-98756605D01*
X130538989Y-98756605D01*
X130537170Y-98756500D01*
X128843684Y-98756500D01*
X128840897Y-98756749D01*
X128840891Y-98756749D01*
X128771727Y-98762922D01*
X128678905Y-98771206D01*
X128464799Y-98829779D01*
X128459741Y-98832191D01*
X128459737Y-98832193D01*
X128364624Y-98877560D01*
X128264449Y-98925341D01*
X128084187Y-99054872D01*
X127929713Y-99214277D01*
X127805908Y-99398518D01*
X127716686Y-99601771D01*
X127664868Y-99817612D01*
X127664545Y-99823217D01*
X127652952Y-100024276D01*
X127652090Y-100039217D01*
X127678757Y-100259583D01*
X127744027Y-100471744D01*
X127752101Y-100487386D01*
X127763818Y-100510088D01*
X127777287Y-100579795D01*
X127750932Y-100645719D01*
X127693120Y-100686928D01*
X127638248Y-100693141D01*
X127626541Y-100691870D01*
X127626539Y-100691870D01*
X127623134Y-100691500D01*
X126834000Y-100691500D01*
X126765879Y-100671498D01*
X126719386Y-100617842D01*
X126708000Y-100565500D01*
X126708000Y-97899000D01*
X126728002Y-97830879D01*
X126781658Y-97784386D01*
X126834000Y-97773000D01*
X137566000Y-97773000D01*
X137634121Y-97793002D01*
G37*
%TD.AperFunction*%
%TD*%
M02*
