G04 #@! TF.GenerationSoftware,KiCad,Pcbnew,(6.0.4)*
G04 #@! TF.CreationDate,2022-07-08T01:04:45-04:00*
G04 #@! TF.ProjectId,power_divider,706f7765-725f-4646-9976-696465722e6b,Version 2*
G04 #@! TF.SameCoordinates,Original*
G04 #@! TF.FileFunction,Copper,L3,Inr*
G04 #@! TF.FilePolarity,Positive*
%FSLAX46Y46*%
G04 Gerber Fmt 4.6, Leading zero omitted, Abs format (unit mm)*
G04 Created by KiCad (PCBNEW (6.0.4)) date 2022-07-08 01:04:45*
%MOMM*%
%LPD*%
G01*
G04 APERTURE LIST*
G04 #@! TA.AperFunction,ViaPad*
%ADD10C,0.800000*%
G04 #@! TD*
G04 APERTURE END LIST*
D10*
G04 #@! TO.N,GND*
X135992859Y-65997532D03*
X128990392Y-70999294D03*
X128988982Y-87988982D03*
X149985698Y-83991097D03*
X149999999Y-91993829D03*
X145994601Y-81995548D03*
X132715000Y-79121000D03*
X147999294Y-91993829D03*
X120991318Y-81986866D03*
X137994359Y-75993124D03*
X137993564Y-63996827D03*
X145994601Y-77981247D03*
X129990744Y-63996827D03*
X149998589Y-73999294D03*
X149997795Y-63996827D03*
X130991097Y-70999294D03*
X116984751Y-81986866D03*
X141984661Y-64007140D03*
X126999999Y-72999999D03*
X129000000Y-86000000D03*
X133985588Y-87988982D03*
X131991449Y-65997532D03*
X129990744Y-67998237D03*
X120991318Y-79991318D03*
X137993564Y-65997532D03*
X137994359Y-73999294D03*
X133992154Y-65997532D03*
X145997179Y-71998589D03*
X140000000Y-70000000D03*
X153993124Y-73999294D03*
X126999999Y-68998589D03*
X130999999Y-87988982D03*
X143995679Y-61996122D03*
X150000000Y-90000000D03*
X154000000Y-80000000D03*
X135993654Y-73999294D03*
X126993433Y-81986866D03*
X144000000Y-70000000D03*
X147990150Y-79999999D03*
X149998589Y-71998589D03*
X143999053Y-77981247D03*
X137995769Y-89993124D03*
X118995769Y-85993433D03*
X124997884Y-83997884D03*
X153976795Y-77981247D03*
X133994359Y-89993124D03*
X153999205Y-61996122D03*
X141980300Y-81995548D03*
X133994359Y-91993829D03*
X151981247Y-79999999D03*
X139996474Y-91993829D03*
X151993829Y-91993829D03*
X146000000Y-70000000D03*
X135993654Y-79999999D03*
X143999053Y-83991097D03*
X142009520Y-73999294D03*
X153993124Y-75993124D03*
X143996474Y-75993124D03*
X124999294Y-70999294D03*
X149998589Y-75993124D03*
X124997884Y-79991318D03*
X128990392Y-68998589D03*
X118997179Y-70999294D03*
X141980300Y-83991097D03*
X149985698Y-81995548D03*
X116984751Y-85993433D03*
X149985698Y-77981247D03*
X118995769Y-83997884D03*
X132715000Y-75819000D03*
X136000000Y-78000000D03*
X145994601Y-83991097D03*
X143999053Y-81995548D03*
X139984751Y-81995548D03*
X147990150Y-77981247D03*
X122986866Y-81986866D03*
X128988982Y-83997884D03*
X120991318Y-83997884D03*
X130999999Y-83997884D03*
X147997884Y-71998589D03*
X122986866Y-85993433D03*
X143995679Y-63996827D03*
X116984751Y-83997884D03*
X139984751Y-77981247D03*
X149997795Y-61996122D03*
X126993433Y-79991318D03*
X131991449Y-63996827D03*
X139984751Y-83991097D03*
X120997884Y-70999294D03*
X145996384Y-61996122D03*
X120997884Y-68998589D03*
X131064000Y-77470000D03*
X137995769Y-91993829D03*
X143996474Y-73999294D03*
X147997884Y-75993124D03*
X139995064Y-73999294D03*
X142000000Y-70000000D03*
X141995769Y-75993124D03*
X136000000Y-76000000D03*
X136986645Y-87988982D03*
X137989203Y-79999999D03*
X141980300Y-79999999D03*
X151981247Y-77981247D03*
X145997179Y-75993124D03*
X135995064Y-91993829D03*
X118997179Y-68998589D03*
X145997179Y-73999294D03*
X118995769Y-81986866D03*
X130996739Y-91993829D03*
X151999294Y-73999294D03*
X141995769Y-71998589D03*
X139984751Y-79999999D03*
X122998589Y-68998589D03*
X122986866Y-83997884D03*
X153994534Y-91993829D03*
X139995064Y-71998589D03*
X147990150Y-81995548D03*
X139994269Y-63996827D03*
X139996474Y-89993124D03*
X139995064Y-75993124D03*
X143999053Y-79999999D03*
X147997884Y-73999294D03*
X129002909Y-89986249D03*
X124997884Y-85993433D03*
X145994601Y-79999999D03*
X122998589Y-70999294D03*
X124999294Y-72999999D03*
X126999999Y-70999294D03*
X135000000Y-82000000D03*
X124997884Y-81986866D03*
X126993433Y-85993433D03*
X137989203Y-83991097D03*
X135992859Y-63996827D03*
X141997179Y-91993829D03*
X130996739Y-89993124D03*
X133992154Y-63996827D03*
X138000000Y-78000000D03*
X120991318Y-85993433D03*
X135995064Y-89993124D03*
X129990744Y-65997532D03*
X141980300Y-77981247D03*
X143996474Y-71998589D03*
X149998589Y-69997884D03*
X116996474Y-70999294D03*
X124999294Y-68998589D03*
X151999294Y-75993124D03*
X116996474Y-68998589D03*
X149985698Y-79999999D03*
X143997884Y-91993829D03*
X143997884Y-89993124D03*
X151998500Y-61996122D03*
X147997090Y-61996122D03*
X126993433Y-83997884D03*
X145998589Y-91993829D03*
G04 #@! TD*
G04 #@! TA.AperFunction,Conductor*
G04 #@! TO.N,GND*
G36*
X151002747Y-52500620D02*
G01*
X151194211Y-52508980D01*
X151194424Y-52508989D01*
X151392780Y-52518159D01*
X151403406Y-52519103D01*
X151600936Y-52545108D01*
X151601846Y-52545231D01*
X151793539Y-52571971D01*
X151803396Y-52573749D01*
X151998804Y-52617070D01*
X152000380Y-52617430D01*
X152066709Y-52633030D01*
X152187815Y-52661514D01*
X152196827Y-52663991D01*
X152388135Y-52724310D01*
X152390243Y-52724996D01*
X152451557Y-52745546D01*
X152572400Y-52786049D01*
X152580576Y-52789108D01*
X152766106Y-52865957D01*
X152768782Y-52867102D01*
X152944261Y-52944583D01*
X152951547Y-52948084D01*
X153129766Y-53040859D01*
X153132874Y-53042532D01*
X153300403Y-53135845D01*
X153306746Y-53139629D01*
X153476259Y-53247620D01*
X153479766Y-53249937D01*
X153637873Y-53358242D01*
X153637874Y-53358243D01*
X153643371Y-53362231D01*
X153802833Y-53484591D01*
X153806624Y-53487617D01*
X153954046Y-53610035D01*
X153958675Y-53614074D01*
X154106871Y-53749870D01*
X154110842Y-53753672D01*
X154246328Y-53889158D01*
X154250130Y-53893129D01*
X154385926Y-54041325D01*
X154389965Y-54045954D01*
X154512383Y-54193376D01*
X154515409Y-54197167D01*
X154637769Y-54356629D01*
X154641757Y-54362126D01*
X154750063Y-54520234D01*
X154752380Y-54523741D01*
X154860365Y-54693243D01*
X154864155Y-54699597D01*
X154957468Y-54867126D01*
X154959141Y-54870234D01*
X155051916Y-55048453D01*
X155055417Y-55055739D01*
X155132898Y-55231218D01*
X155134043Y-55233894D01*
X155210892Y-55419424D01*
X155213951Y-55427600D01*
X155274975Y-55609668D01*
X155274997Y-55609735D01*
X155275690Y-55611865D01*
X155336008Y-55803171D01*
X155338486Y-55812185D01*
X155350666Y-55863972D01*
X155382570Y-55999620D01*
X155382930Y-56001196D01*
X155426251Y-56196604D01*
X155428030Y-56206467D01*
X155454762Y-56398102D01*
X155454892Y-56399064D01*
X155480897Y-56596594D01*
X155481841Y-56607221D01*
X155491009Y-56805522D01*
X155491023Y-56805845D01*
X155499380Y-56997253D01*
X155499500Y-57002749D01*
X155499498Y-98997297D01*
X155499378Y-99002793D01*
X155491023Y-99194155D01*
X155491009Y-99194478D01*
X155481841Y-99392779D01*
X155480897Y-99403406D01*
X155454892Y-99600936D01*
X155454762Y-99601898D01*
X155428030Y-99793533D01*
X155426251Y-99803397D01*
X155382917Y-99998861D01*
X155382557Y-100000436D01*
X155338493Y-100187787D01*
X155336009Y-100196827D01*
X155275677Y-100388177D01*
X155275676Y-100388179D01*
X155274987Y-100390298D01*
X155213958Y-100572385D01*
X155210902Y-100580554D01*
X155205975Y-100592449D01*
X155134030Y-100766139D01*
X155132892Y-100768799D01*
X155055414Y-100944268D01*
X155051928Y-100951524D01*
X155003993Y-101043607D01*
X154959142Y-101129764D01*
X154957456Y-101132895D01*
X154864176Y-101300366D01*
X154860368Y-101306751D01*
X154752339Y-101476324D01*
X154750048Y-101479789D01*
X154641758Y-101637872D01*
X154637801Y-101643328D01*
X154515363Y-101802893D01*
X154512392Y-101806615D01*
X154389982Y-101954028D01*
X154389980Y-101954030D01*
X154385941Y-101958659D01*
X154250108Y-102106895D01*
X154246306Y-102110866D01*
X154110866Y-102246306D01*
X154106895Y-102250108D01*
X153958659Y-102385941D01*
X153954033Y-102389977D01*
X153806615Y-102512392D01*
X153802893Y-102515363D01*
X153643328Y-102637801D01*
X153637872Y-102641758D01*
X153479789Y-102750048D01*
X153476324Y-102752339D01*
X153324495Y-102849064D01*
X153306753Y-102860367D01*
X153300366Y-102864176D01*
X153132895Y-102957456D01*
X153129764Y-102959142D01*
X153043607Y-103003993D01*
X152951524Y-103051928D01*
X152944268Y-103055414D01*
X152768815Y-103132885D01*
X152766155Y-103134023D01*
X152580554Y-103210902D01*
X152572390Y-103213956D01*
X152390298Y-103274987D01*
X152388215Y-103275664D01*
X152288246Y-103307185D01*
X152196829Y-103336008D01*
X152187787Y-103338493D01*
X152000436Y-103382557D01*
X151998861Y-103382917D01*
X151836251Y-103418967D01*
X151803394Y-103426252D01*
X151793539Y-103428029D01*
X151601846Y-103454769D01*
X151600936Y-103454892D01*
X151403406Y-103480897D01*
X151392780Y-103481841D01*
X151194424Y-103491011D01*
X151194211Y-103491020D01*
X151002793Y-103499378D01*
X151002747Y-103499380D01*
X150997251Y-103499500D01*
X120002751Y-103499498D01*
X119997255Y-103499378D01*
X119805791Y-103491018D01*
X119805578Y-103491009D01*
X119607222Y-103481839D01*
X119596596Y-103480895D01*
X119399066Y-103454890D01*
X119398156Y-103454767D01*
X119206463Y-103428027D01*
X119196608Y-103426250D01*
X119163751Y-103418965D01*
X119001141Y-103382915D01*
X118999566Y-103382555D01*
X118812215Y-103338491D01*
X118803173Y-103336006D01*
X118711756Y-103307183D01*
X118611787Y-103275662D01*
X118609704Y-103274985D01*
X118427612Y-103213954D01*
X118419446Y-103210899D01*
X118233847Y-103134021D01*
X118231187Y-103132883D01*
X118055734Y-103055412D01*
X118048478Y-103051926D01*
X117956395Y-103003991D01*
X117870238Y-102959140D01*
X117867107Y-102957454D01*
X117699636Y-102864174D01*
X117693249Y-102860365D01*
X117675507Y-102849062D01*
X117523678Y-102752337D01*
X117520213Y-102750046D01*
X117362130Y-102641756D01*
X117356674Y-102637799D01*
X117197109Y-102515361D01*
X117193372Y-102512377D01*
X117045969Y-102389975D01*
X117041343Y-102385939D01*
X116893107Y-102250106D01*
X116889136Y-102246304D01*
X116753696Y-102110864D01*
X116749894Y-102106893D01*
X116614061Y-101958657D01*
X116610022Y-101954028D01*
X116487627Y-101806633D01*
X116487610Y-101806613D01*
X116484639Y-101802891D01*
X116362201Y-101643326D01*
X116358244Y-101637870D01*
X116249954Y-101479787D01*
X116247663Y-101476322D01*
X116139635Y-101306751D01*
X116135826Y-101300364D01*
X116042546Y-101132893D01*
X116040860Y-101129762D01*
X115996009Y-101043605D01*
X115948074Y-100951522D01*
X115944581Y-100944252D01*
X115867110Y-100768797D01*
X115865972Y-100766137D01*
X115789100Y-100580552D01*
X115786044Y-100572383D01*
X115772214Y-100531120D01*
X115725015Y-100390296D01*
X115724326Y-100388177D01*
X115663994Y-100196827D01*
X115661509Y-100187785D01*
X115617445Y-100000434D01*
X115617085Y-99998859D01*
X115581035Y-99836249D01*
X115573750Y-99803392D01*
X115571973Y-99793537D01*
X115545233Y-99601844D01*
X115545110Y-99600934D01*
X115519105Y-99403404D01*
X115518161Y-99392777D01*
X115508993Y-99194476D01*
X115508979Y-99194153D01*
X115500622Y-99002745D01*
X115500562Y-99000000D01*
X118388094Y-99000000D01*
X118407939Y-99252158D01*
X118409093Y-99256965D01*
X118409094Y-99256971D01*
X118441699Y-99392777D01*
X118466986Y-99498106D01*
X118468879Y-99502677D01*
X118468880Y-99502679D01*
X118509956Y-99601844D01*
X118563781Y-99731790D01*
X118695941Y-99947455D01*
X118860210Y-100139790D01*
X119052545Y-100304059D01*
X119268210Y-100436219D01*
X119272780Y-100438112D01*
X119272784Y-100438114D01*
X119488188Y-100527337D01*
X119501894Y-100533014D01*
X119587655Y-100553604D01*
X119743029Y-100590906D01*
X119743035Y-100590907D01*
X119747842Y-100592061D01*
X120000000Y-100611906D01*
X120252158Y-100592061D01*
X120256965Y-100590907D01*
X120256971Y-100590906D01*
X120412345Y-100553604D01*
X120498106Y-100533014D01*
X120511812Y-100527337D01*
X120727216Y-100438114D01*
X120727220Y-100438112D01*
X120731790Y-100436219D01*
X120947455Y-100304059D01*
X121139790Y-100139790D01*
X121304059Y-99947455D01*
X121436219Y-99731790D01*
X121490045Y-99601844D01*
X121531120Y-99502679D01*
X121531121Y-99502677D01*
X121533014Y-99498106D01*
X121558301Y-99392777D01*
X121590906Y-99256971D01*
X121590907Y-99256965D01*
X121592061Y-99252158D01*
X121611906Y-99000000D01*
X149388094Y-99000000D01*
X149407939Y-99252158D01*
X149409093Y-99256965D01*
X149409094Y-99256971D01*
X149441699Y-99392777D01*
X149466986Y-99498106D01*
X149468879Y-99502677D01*
X149468880Y-99502679D01*
X149509956Y-99601844D01*
X149563781Y-99731790D01*
X149695941Y-99947455D01*
X149860210Y-100139790D01*
X150052545Y-100304059D01*
X150268210Y-100436219D01*
X150272780Y-100438112D01*
X150272784Y-100438114D01*
X150488188Y-100527337D01*
X150501894Y-100533014D01*
X150587655Y-100553604D01*
X150743029Y-100590906D01*
X150743035Y-100590907D01*
X150747842Y-100592061D01*
X151000000Y-100611906D01*
X151252158Y-100592061D01*
X151256965Y-100590907D01*
X151256971Y-100590906D01*
X151412345Y-100553604D01*
X151498106Y-100533014D01*
X151511812Y-100527337D01*
X151727216Y-100438114D01*
X151727220Y-100438112D01*
X151731790Y-100436219D01*
X151947455Y-100304059D01*
X152139790Y-100139790D01*
X152304059Y-99947455D01*
X152436219Y-99731790D01*
X152490045Y-99601844D01*
X152531120Y-99502679D01*
X152531121Y-99502677D01*
X152533014Y-99498106D01*
X152558301Y-99392777D01*
X152590906Y-99256971D01*
X152590907Y-99256965D01*
X152592061Y-99252158D01*
X152611906Y-99000000D01*
X152592061Y-98747842D01*
X152590907Y-98743035D01*
X152590906Y-98743029D01*
X152534169Y-98506706D01*
X152533014Y-98501894D01*
X152436219Y-98268210D01*
X152304059Y-98052545D01*
X152139790Y-97860210D01*
X151947455Y-97695941D01*
X151731790Y-97563781D01*
X151727220Y-97561888D01*
X151727216Y-97561886D01*
X151502679Y-97468880D01*
X151502677Y-97468879D01*
X151498106Y-97466986D01*
X151412345Y-97446396D01*
X151256971Y-97409094D01*
X151256965Y-97409093D01*
X151252158Y-97407939D01*
X151000000Y-97388094D01*
X150747842Y-97407939D01*
X150743035Y-97409093D01*
X150743029Y-97409094D01*
X150587655Y-97446396D01*
X150501894Y-97466986D01*
X150497323Y-97468879D01*
X150497321Y-97468880D01*
X150272784Y-97561886D01*
X150272780Y-97561888D01*
X150268210Y-97563781D01*
X150052545Y-97695941D01*
X149860210Y-97860210D01*
X149695941Y-98052545D01*
X149563781Y-98268210D01*
X149466986Y-98501894D01*
X149465831Y-98506706D01*
X149409094Y-98743029D01*
X149409093Y-98743035D01*
X149407939Y-98747842D01*
X149388094Y-99000000D01*
X121611906Y-99000000D01*
X121592061Y-98747842D01*
X121590907Y-98743035D01*
X121590906Y-98743029D01*
X121534169Y-98506706D01*
X121533014Y-98501894D01*
X121436219Y-98268210D01*
X121304059Y-98052545D01*
X121139790Y-97860210D01*
X120947455Y-97695941D01*
X120731790Y-97563781D01*
X120727220Y-97561888D01*
X120727216Y-97561886D01*
X120502679Y-97468880D01*
X120502677Y-97468879D01*
X120498106Y-97466986D01*
X120412345Y-97446396D01*
X120256971Y-97409094D01*
X120256965Y-97409093D01*
X120252158Y-97407939D01*
X120000000Y-97388094D01*
X119747842Y-97407939D01*
X119743035Y-97409093D01*
X119743029Y-97409094D01*
X119587655Y-97446396D01*
X119501894Y-97466986D01*
X119497323Y-97468879D01*
X119497321Y-97468880D01*
X119272784Y-97561886D01*
X119272780Y-97561888D01*
X119268210Y-97563781D01*
X119052545Y-97695941D01*
X118860210Y-97860210D01*
X118695941Y-98052545D01*
X118563781Y-98268210D01*
X118466986Y-98501894D01*
X118465831Y-98506706D01*
X118409094Y-98743029D01*
X118409093Y-98743035D01*
X118407939Y-98747842D01*
X118388094Y-99000000D01*
X115500562Y-99000000D01*
X115500502Y-98997249D01*
X115500500Y-57002749D01*
X115500560Y-57000000D01*
X118388094Y-57000000D01*
X118407939Y-57252158D01*
X118409093Y-57256965D01*
X118409094Y-57256971D01*
X118446396Y-57412345D01*
X118466986Y-57498106D01*
X118563781Y-57731790D01*
X118695941Y-57947455D01*
X118860210Y-58139790D01*
X119052545Y-58304059D01*
X119268210Y-58436219D01*
X119272780Y-58438112D01*
X119272784Y-58438114D01*
X119488188Y-58527337D01*
X119501894Y-58533014D01*
X119587655Y-58553604D01*
X119743029Y-58590906D01*
X119743035Y-58590907D01*
X119747842Y-58592061D01*
X120000000Y-58611906D01*
X120252158Y-58592061D01*
X120256965Y-58590907D01*
X120256971Y-58590906D01*
X120412345Y-58553604D01*
X120498106Y-58533014D01*
X120511812Y-58527337D01*
X120727216Y-58438114D01*
X120727220Y-58438112D01*
X120731790Y-58436219D01*
X120947455Y-58304059D01*
X121139790Y-58139790D01*
X121304059Y-57947455D01*
X121436219Y-57731790D01*
X121533014Y-57498106D01*
X121553604Y-57412345D01*
X121590906Y-57256971D01*
X121590907Y-57256965D01*
X121592061Y-57252158D01*
X121611906Y-57000000D01*
X149388094Y-57000000D01*
X149407939Y-57252158D01*
X149409093Y-57256965D01*
X149409094Y-57256971D01*
X149446396Y-57412345D01*
X149466986Y-57498106D01*
X149563781Y-57731790D01*
X149695941Y-57947455D01*
X149860210Y-58139790D01*
X150052545Y-58304059D01*
X150268210Y-58436219D01*
X150272780Y-58438112D01*
X150272784Y-58438114D01*
X150488188Y-58527337D01*
X150501894Y-58533014D01*
X150587655Y-58553604D01*
X150743029Y-58590906D01*
X150743035Y-58590907D01*
X150747842Y-58592061D01*
X151000000Y-58611906D01*
X151252158Y-58592061D01*
X151256965Y-58590907D01*
X151256971Y-58590906D01*
X151412345Y-58553604D01*
X151498106Y-58533014D01*
X151511812Y-58527337D01*
X151727216Y-58438114D01*
X151727220Y-58438112D01*
X151731790Y-58436219D01*
X151947455Y-58304059D01*
X152139790Y-58139790D01*
X152304059Y-57947455D01*
X152436219Y-57731790D01*
X152533014Y-57498106D01*
X152553604Y-57412345D01*
X152590906Y-57256971D01*
X152590907Y-57256965D01*
X152592061Y-57252158D01*
X152611906Y-57000000D01*
X152592061Y-56747842D01*
X152590907Y-56743035D01*
X152590906Y-56743029D01*
X152534169Y-56506706D01*
X152533014Y-56501894D01*
X152531120Y-56497321D01*
X152438114Y-56272784D01*
X152438112Y-56272780D01*
X152436219Y-56268210D01*
X152304059Y-56052545D01*
X152139790Y-55860210D01*
X151947455Y-55695941D01*
X151731790Y-55563781D01*
X151727220Y-55561888D01*
X151727216Y-55561886D01*
X151502679Y-55468880D01*
X151502677Y-55468879D01*
X151498106Y-55466986D01*
X151412345Y-55446396D01*
X151256971Y-55409094D01*
X151256965Y-55409093D01*
X151252158Y-55407939D01*
X151000000Y-55388094D01*
X150747842Y-55407939D01*
X150743035Y-55409093D01*
X150743029Y-55409094D01*
X150587655Y-55446396D01*
X150501894Y-55466986D01*
X150497323Y-55468879D01*
X150497321Y-55468880D01*
X150272784Y-55561886D01*
X150272780Y-55561888D01*
X150268210Y-55563781D01*
X150052545Y-55695941D01*
X149860210Y-55860210D01*
X149695941Y-56052545D01*
X149563781Y-56268210D01*
X149561888Y-56272780D01*
X149561886Y-56272784D01*
X149468880Y-56497321D01*
X149466986Y-56501894D01*
X149465831Y-56506706D01*
X149409094Y-56743029D01*
X149409093Y-56743035D01*
X149407939Y-56747842D01*
X149388094Y-57000000D01*
X121611906Y-57000000D01*
X121592061Y-56747842D01*
X121590907Y-56743035D01*
X121590906Y-56743029D01*
X121534169Y-56506706D01*
X121533014Y-56501894D01*
X121531120Y-56497321D01*
X121438114Y-56272784D01*
X121438112Y-56272780D01*
X121436219Y-56268210D01*
X121304059Y-56052545D01*
X121139790Y-55860210D01*
X120947455Y-55695941D01*
X120731790Y-55563781D01*
X120727220Y-55561888D01*
X120727216Y-55561886D01*
X120502679Y-55468880D01*
X120502677Y-55468879D01*
X120498106Y-55466986D01*
X120412345Y-55446396D01*
X120256971Y-55409094D01*
X120256965Y-55409093D01*
X120252158Y-55407939D01*
X120000000Y-55388094D01*
X119747842Y-55407939D01*
X119743035Y-55409093D01*
X119743029Y-55409094D01*
X119587655Y-55446396D01*
X119501894Y-55466986D01*
X119497323Y-55468879D01*
X119497321Y-55468880D01*
X119272784Y-55561886D01*
X119272780Y-55561888D01*
X119268210Y-55563781D01*
X119052545Y-55695941D01*
X118860210Y-55860210D01*
X118695941Y-56052545D01*
X118563781Y-56268210D01*
X118561888Y-56272780D01*
X118561886Y-56272784D01*
X118468880Y-56497321D01*
X118466986Y-56501894D01*
X118465831Y-56506706D01*
X118409094Y-56743029D01*
X118409093Y-56743035D01*
X118407939Y-56747842D01*
X118388094Y-57000000D01*
X115500560Y-57000000D01*
X115500620Y-56997253D01*
X115508977Y-56805845D01*
X115508991Y-56805522D01*
X115518159Y-56607221D01*
X115519103Y-56596594D01*
X115545108Y-56399064D01*
X115545238Y-56398102D01*
X115571970Y-56206467D01*
X115573749Y-56196603D01*
X115617083Y-56001139D01*
X115617443Y-55999564D01*
X115661507Y-55812213D01*
X115663992Y-55803171D01*
X115724324Y-55611821D01*
X115725024Y-55609668D01*
X115772212Y-55468880D01*
X115786044Y-55427610D01*
X115789101Y-55419439D01*
X115791423Y-55413835D01*
X115865977Y-55233845D01*
X115867115Y-55231185D01*
X115944586Y-55055732D01*
X115948072Y-55048476D01*
X115996007Y-54956393D01*
X116040858Y-54870236D01*
X116042544Y-54867105D01*
X116135824Y-54699634D01*
X116139633Y-54693247D01*
X116150936Y-54675505D01*
X116247661Y-54523676D01*
X116249952Y-54520211D01*
X116358242Y-54362128D01*
X116362199Y-54356672D01*
X116484637Y-54197107D01*
X116487616Y-54193376D01*
X116610023Y-54045967D01*
X116614059Y-54041341D01*
X116749892Y-53893105D01*
X116753694Y-53889134D01*
X116889134Y-53753694D01*
X116893105Y-53749892D01*
X117041341Y-53614059D01*
X117045970Y-53610020D01*
X117193385Y-53487608D01*
X117197107Y-53484637D01*
X117356672Y-53362199D01*
X117362128Y-53358242D01*
X117520211Y-53249952D01*
X117523676Y-53247661D01*
X117693247Y-53139633D01*
X117699634Y-53135824D01*
X117867105Y-53042544D01*
X117870236Y-53040858D01*
X117956393Y-52996007D01*
X118048476Y-52948072D01*
X118055738Y-52944583D01*
X118231215Y-52867102D01*
X118233845Y-52865977D01*
X118419446Y-52789098D01*
X118427610Y-52786044D01*
X118609702Y-52725013D01*
X118611785Y-52724336D01*
X118711754Y-52692815D01*
X118803171Y-52663992D01*
X118812213Y-52661507D01*
X118999564Y-52617443D01*
X119001139Y-52617083D01*
X119163749Y-52581033D01*
X119196606Y-52573748D01*
X119206461Y-52571971D01*
X119398154Y-52545231D01*
X119399064Y-52545108D01*
X119596594Y-52519103D01*
X119607220Y-52518159D01*
X119805576Y-52508989D01*
X119805789Y-52508980D01*
X119997253Y-52500620D01*
X120002749Y-52500500D01*
X150997251Y-52500500D01*
X151002747Y-52500620D01*
G37*
G04 #@! TD.AperFunction*
G04 #@! TD*
M02*
