G04 #@! TF.GenerationSoftware,KiCad,Pcbnew,(6.0.4)*
G04 #@! TF.CreationDate,2022-07-08T01:04:44-04:00*
G04 #@! TF.ProjectId,power_divider,706f7765-725f-4646-9976-696465722e6b,Version 2*
G04 #@! TF.SameCoordinates,Original*
G04 #@! TF.FileFunction,Copper,L1,Top*
G04 #@! TF.FilePolarity,Positive*
%FSLAX46Y46*%
G04 Gerber Fmt 4.6, Leading zero omitted, Abs format (unit mm)*
G04 Created by KiCad (PCBNEW (6.0.4)) date 2022-07-08 01:04:44*
%MOMM*%
%LPD*%
G01*
G04 APERTURE LIST*
G04 Aperture macros list*
%AMRoundRect*
0 Rectangle with rounded corners*
0 $1 Rounding radius*
0 $2 $3 $4 $5 $6 $7 $8 $9 X,Y pos of 4 corners*
0 Add a 4 corners polygon primitive as box body*
4,1,4,$2,$3,$4,$5,$6,$7,$8,$9,$2,$3,0*
0 Add four circle primitives for the rounded corners*
1,1,$1+$1,$2,$3*
1,1,$1+$1,$4,$5*
1,1,$1+$1,$6,$7*
1,1,$1+$1,$8,$9*
0 Add four rect primitives between the rounded corners*
20,1,$1+$1,$2,$3,$4,$5,0*
20,1,$1+$1,$4,$5,$6,$7,0*
20,1,$1+$1,$6,$7,$8,$9,0*
20,1,$1+$1,$8,$9,$2,$3,0*%
%AMRotRect*
0 Rectangle, with rotation*
0 The origin of the aperture is its center*
0 $1 length*
0 $2 width*
0 $3 Rotation angle, in degrees counterclockwise*
0 Add horizontal line*
21,1,$1,$2,0,0,$3*%
G04 Aperture macros list end*
G04 #@! TA.AperFunction,SMDPad,CuDef*
%ADD10RoundRect,0.218750X-0.218750X-0.256250X0.218750X-0.256250X0.218750X0.256250X-0.218750X0.256250X0*%
G04 #@! TD*
G04 #@! TA.AperFunction,SMDPad,CuDef*
%ADD11RotRect,1.075000X1.400000X135.000000*%
G04 #@! TD*
G04 #@! TA.AperFunction,SMDPad,CuDef*
%ADD12RotRect,1.075000X1.400000X225.000000*%
G04 #@! TD*
G04 #@! TA.AperFunction,SMDPad,CuDef*
%ADD13RoundRect,0.218750X-0.335876X-0.026517X-0.026517X-0.335876X0.335876X0.026517X0.026517X0.335876X0*%
G04 #@! TD*
G04 #@! TA.AperFunction,SMDPad,CuDef*
%ADD14RoundRect,0.225000X0.250000X-0.225000X0.250000X0.225000X-0.250000X0.225000X-0.250000X-0.225000X0*%
G04 #@! TD*
G04 #@! TA.AperFunction,SMDPad,CuDef*
%ADD15RoundRect,0.225000X-0.250000X0.225000X-0.250000X-0.225000X0.250000X-0.225000X0.250000X0.225000X0*%
G04 #@! TD*
G04 #@! TA.AperFunction,SMDPad,CuDef*
%ADD16RoundRect,0.225000X-0.017678X0.335876X-0.335876X0.017678X0.017678X-0.335876X0.335876X-0.017678X0*%
G04 #@! TD*
G04 #@! TA.AperFunction,SMDPad,CuDef*
%ADD17R,3.600000X1.270000*%
G04 #@! TD*
G04 #@! TA.AperFunction,SMDPad,CuDef*
%ADD18R,4.200000X1.350000*%
G04 #@! TD*
G04 #@! TA.AperFunction,SMDPad,CuDef*
%ADD19RoundRect,0.218750X0.026517X-0.335876X0.335876X-0.026517X-0.026517X0.335876X-0.335876X0.026517X0*%
G04 #@! TD*
G04 #@! TA.AperFunction,SMDPad,CuDef*
%ADD20R,1.400000X1.075000*%
G04 #@! TD*
G04 #@! TA.AperFunction,SMDPad,CuDef*
%ADD21RoundRect,0.225000X0.335876X0.017678X0.017678X0.335876X-0.335876X-0.017678X-0.017678X-0.335876X0*%
G04 #@! TD*
G04 #@! TA.AperFunction,SMDPad,CuDef*
%ADD22RoundRect,0.200000X-0.275000X0.200000X-0.275000X-0.200000X0.275000X-0.200000X0.275000X0.200000X0*%
G04 #@! TD*
G04 #@! TA.AperFunction,ViaPad*
%ADD23C,0.800000*%
G04 #@! TD*
G04 #@! TA.AperFunction,Conductor*
%ADD24C,0.293370*%
G04 #@! TD*
G04 #@! TA.AperFunction,Conductor*
%ADD25C,0.250000*%
G04 #@! TD*
G04 APERTURE END LIST*
D10*
G04 #@! TO.P,L8,1,1*
G04 #@! TO.N,Net-(C6-Pad1)*
X138912500Y-87122000D03*
G04 #@! TO.P,L8,2,2*
G04 #@! TO.N,Net-(L4-Pad1)*
X140487500Y-87122000D03*
G04 #@! TD*
D11*
G04 #@! TO.P,C7,1*
G04 #@! TO.N,Net-(C5-Pad1)*
X134649309Y-70895309D03*
G04 #@! TO.P,C7,2*
G04 #@! TO.N,GND*
X132050691Y-68296691D03*
G04 #@! TD*
D12*
G04 #@! TO.P,C6,1*
G04 #@! TO.N,Net-(C6-Pad1)*
X134649309Y-84044691D03*
G04 #@! TO.P,C6,2*
G04 #@! TO.N,GND*
X132050691Y-86643309D03*
G04 #@! TD*
D13*
G04 #@! TO.P,L6,1,1*
G04 #@! TO.N,Net-(C1-Pad1)*
X129237153Y-78691153D03*
G04 #@! TO.P,L6,2,2*
G04 #@! TO.N,Net-(L2-Pad1)*
X130350847Y-79804847D03*
G04 #@! TD*
D10*
G04 #@! TO.P,L4,1,1*
G04 #@! TO.N,Net-(L4-Pad1)*
X142214500Y-87122000D03*
G04 #@! TO.P,L4,2,2*
G04 #@! TO.N,Net-(C10-Pad1)*
X143789500Y-87122000D03*
G04 #@! TD*
D14*
G04 #@! TO.P,C2,1*
G04 #@! TO.N,Net-(C2-Pad1)*
X149860000Y-67577000D03*
G04 #@! TO.P,C2,2*
G04 #@! TO.N,GND*
X149860000Y-66027000D03*
G04 #@! TD*
D15*
G04 #@! TO.P,C3,1*
G04 #@! TO.N,Net-(C10-Pad1)*
X149606000Y-87109000D03*
G04 #@! TO.P,C3,2*
G04 #@! TO.N,GND*
X149606000Y-88659000D03*
G04 #@! TD*
D16*
G04 #@! TO.P,C8,1*
G04 #@! TO.N,Net-(C6-Pad1)*
X136692008Y-86065992D03*
G04 #@! TO.P,C8,2*
G04 #@! TO.N,GND*
X135595992Y-87162008D03*
G04 #@! TD*
D17*
G04 #@! TO.P,J3,1,In*
G04 #@! TO.N,Net-(C10-Pad1)*
X153525500Y-87122000D03*
D18*
G04 #@! TO.P,J3,2,Ext*
G04 #@! TO.N,GND*
X153325500Y-84297000D03*
X153325500Y-89947000D03*
G04 #@! TD*
D14*
G04 #@! TO.P,C1,1*
G04 #@! TO.N,Net-(C1-Pad1)*
X125984000Y-77483000D03*
G04 #@! TO.P,C1,2*
G04 #@! TO.N,GND*
X125984000Y-75933000D03*
G04 #@! TD*
D17*
G04 #@! TO.P,J1,1,In*
G04 #@! TO.N,Net-(C1-Pad1)*
X117402000Y-77470000D03*
D18*
G04 #@! TO.P,J1,2,Ext*
G04 #@! TO.N,GND*
X117602000Y-74645000D03*
X117602000Y-80295000D03*
G04 #@! TD*
D19*
G04 #@! TO.P,L5,1,1*
G04 #@! TO.N,Net-(C1-Pad1)*
X129237153Y-76502847D03*
G04 #@! TO.P,L5,2,2*
G04 #@! TO.N,Net-(L1-Pad1)*
X130350847Y-75389153D03*
G04 #@! TD*
D20*
G04 #@! TO.P,C4,1*
G04 #@! TO.N,Net-(C1-Pad1)*
X122500000Y-77587500D03*
G04 #@! TO.P,C4,2*
G04 #@! TO.N,GND*
X122500000Y-73912500D03*
G04 #@! TD*
D21*
G04 #@! TO.P,C5,1*
G04 #@! TO.N,Net-(C5-Pad1)*
X137200008Y-68620008D03*
G04 #@! TO.P,C5,2*
G04 #@! TO.N,GND*
X136103992Y-67523992D03*
G04 #@! TD*
D13*
G04 #@! TO.P,L2,1,1*
G04 #@! TO.N,Net-(L2-Pad1)*
X131523153Y-80977153D03*
G04 #@! TO.P,L2,2,2*
G04 #@! TO.N,Net-(C6-Pad1)*
X132636847Y-82090847D03*
G04 #@! TD*
D17*
G04 #@! TO.P,J2,1,In*
G04 #@! TO.N,Net-(C2-Pad1)*
X153525500Y-67564000D03*
D18*
G04 #@! TO.P,J2,2,Ext*
G04 #@! TO.N,GND*
X153325500Y-64739000D03*
X153325500Y-70389000D03*
G04 #@! TD*
D20*
G04 #@! TO.P,C9,1*
G04 #@! TO.N,Net-(C2-Pad1)*
X147066000Y-67623500D03*
G04 #@! TO.P,C9,2*
G04 #@! TO.N,GND*
X147066000Y-63948500D03*
G04 #@! TD*
D19*
G04 #@! TO.P,L1,1,1*
G04 #@! TO.N,Net-(L1-Pad1)*
X131523153Y-74216847D03*
G04 #@! TO.P,L1,2,2*
G04 #@! TO.N,Net-(C5-Pad1)*
X132636847Y-73103153D03*
G04 #@! TD*
D22*
G04 #@! TO.P,R1,1*
G04 #@! TO.N,Net-(C5-Pad1)*
X134250000Y-76645000D03*
G04 #@! TO.P,R1,2*
G04 #@! TO.N,Net-(C6-Pad1)*
X134250000Y-78295000D03*
G04 #@! TD*
D20*
G04 #@! TO.P,C10,1*
G04 #@! TO.N,Net-(C10-Pad1)*
X146558000Y-87062500D03*
G04 #@! TO.P,C10,2*
G04 #@! TO.N,GND*
X146558000Y-90737500D03*
G04 #@! TD*
D10*
G04 #@! TO.P,L7,1,1*
G04 #@! TO.N,Net-(C5-Pad1)*
X139420500Y-67564000D03*
G04 #@! TO.P,L7,2,2*
G04 #@! TO.N,Net-(L3-Pad1)*
X140995500Y-67564000D03*
G04 #@! TD*
G04 #@! TO.P,L3,1,1*
G04 #@! TO.N,Net-(L3-Pad1)*
X142722500Y-67564000D03*
G04 #@! TO.P,L3,2,2*
G04 #@! TO.N,Net-(C2-Pad1)*
X144297500Y-67564000D03*
G04 #@! TD*
D23*
G04 #@! TO.N,GND*
X135992859Y-65997532D03*
X128990392Y-70999294D03*
X128988982Y-87988982D03*
X149985698Y-83991097D03*
X149999999Y-91993829D03*
X145994601Y-81995548D03*
X132715000Y-79121000D03*
X147999294Y-91993829D03*
X120991318Y-81986866D03*
X137994359Y-75993124D03*
X137993564Y-63996827D03*
X145994601Y-77981247D03*
X129990744Y-63996827D03*
X149998589Y-73999294D03*
X149997795Y-63996827D03*
X130991097Y-70999294D03*
X116984751Y-81986866D03*
X141984661Y-64007140D03*
X126999999Y-72999999D03*
X129000000Y-86000000D03*
X133985588Y-87988982D03*
X131991449Y-65997532D03*
X129990744Y-67998237D03*
X120991318Y-79991318D03*
X137993564Y-65997532D03*
X137994359Y-73999294D03*
X133992154Y-65997532D03*
X145997179Y-71998589D03*
X140000000Y-70000000D03*
X153993124Y-73999294D03*
X126999999Y-68998589D03*
X130999999Y-87988982D03*
X143995679Y-61996122D03*
X150000000Y-90000000D03*
X154000000Y-80000000D03*
X135993654Y-73999294D03*
X126993433Y-81986866D03*
X144000000Y-70000000D03*
X147990150Y-79999999D03*
X149998589Y-71998589D03*
X143999053Y-77981247D03*
X137995769Y-89993124D03*
X118995769Y-85993433D03*
X124997884Y-83997884D03*
X153976795Y-77981247D03*
X133994359Y-89993124D03*
X153999205Y-61996122D03*
X141980300Y-81995548D03*
X133994359Y-91993829D03*
X151981247Y-79999999D03*
X139996474Y-91993829D03*
X151993829Y-91993829D03*
X146000000Y-70000000D03*
X135993654Y-79999999D03*
X143999053Y-83991097D03*
X142009520Y-73999294D03*
X153993124Y-75993124D03*
X143996474Y-75993124D03*
X124999294Y-70999294D03*
X149998589Y-75993124D03*
X124997884Y-79991318D03*
X128990392Y-68998589D03*
X118997179Y-70999294D03*
X141980300Y-83991097D03*
X149985698Y-81995548D03*
X116984751Y-85993433D03*
X149985698Y-77981247D03*
X118995769Y-83997884D03*
X132715000Y-75819000D03*
X136000000Y-78000000D03*
X145994601Y-83991097D03*
X143999053Y-81995548D03*
X139984751Y-81995548D03*
X147990150Y-77981247D03*
X122986866Y-81986866D03*
X128988982Y-83997884D03*
X120991318Y-83997884D03*
X130999999Y-83997884D03*
X147997884Y-71998589D03*
X122986866Y-85993433D03*
X143995679Y-63996827D03*
X116984751Y-83997884D03*
X139984751Y-77981247D03*
X149997795Y-61996122D03*
X126993433Y-79991318D03*
X131991449Y-63996827D03*
X139984751Y-83991097D03*
X120997884Y-70999294D03*
X145996384Y-61996122D03*
X120997884Y-68998589D03*
X131064000Y-77470000D03*
X137995769Y-91993829D03*
X143996474Y-73999294D03*
X147997884Y-75993124D03*
X139995064Y-73999294D03*
X142000000Y-70000000D03*
X141995769Y-75993124D03*
X136000000Y-76000000D03*
X136986645Y-87988982D03*
X137989203Y-79999999D03*
X141980300Y-79999999D03*
X151981247Y-77981247D03*
X145997179Y-75993124D03*
X135995064Y-91993829D03*
X118997179Y-68998589D03*
X145997179Y-73999294D03*
X118995769Y-81986866D03*
X130996739Y-91993829D03*
X151999294Y-73999294D03*
X141995769Y-71998589D03*
X139984751Y-79999999D03*
X122998589Y-68998589D03*
X122986866Y-83997884D03*
X153994534Y-91993829D03*
X139995064Y-71998589D03*
X147990150Y-81995548D03*
X139994269Y-63996827D03*
X139996474Y-89993124D03*
X139995064Y-75993124D03*
X143999053Y-79999999D03*
X147997884Y-73999294D03*
X129002909Y-89986249D03*
X124997884Y-85993433D03*
X145994601Y-79999999D03*
X122998589Y-70999294D03*
X124999294Y-72999999D03*
X126999999Y-70999294D03*
X135000000Y-82000000D03*
X124997884Y-81986866D03*
X126993433Y-85993433D03*
X137989203Y-83991097D03*
X135992859Y-63996827D03*
X141997179Y-91993829D03*
X130996739Y-89993124D03*
X133992154Y-63996827D03*
X138000000Y-78000000D03*
X120991318Y-85993433D03*
X135995064Y-89993124D03*
X129990744Y-65997532D03*
X141980300Y-77981247D03*
X143996474Y-71998589D03*
X149998589Y-69997884D03*
X116996474Y-70999294D03*
X124999294Y-68998589D03*
X151999294Y-75993124D03*
X116996474Y-68998589D03*
X149985698Y-79999999D03*
X143997884Y-91993829D03*
X143997884Y-89993124D03*
X151998500Y-61996122D03*
X147997090Y-61996122D03*
X126993433Y-83997884D03*
X145998589Y-91993829D03*
G04 #@! TD*
D24*
G04 #@! TO.N,Net-(C1-Pad1)*
X122428000Y-77529500D02*
X125937500Y-77529500D01*
X128270000Y-77724000D02*
X129237153Y-78691153D01*
X122368500Y-77470000D02*
X122428000Y-77529500D01*
X128270000Y-77470000D02*
X128270000Y-77724000D01*
X128270000Y-77470000D02*
X129237153Y-76502847D01*
X117402000Y-77470000D02*
X122368500Y-77470000D01*
X128257000Y-77483000D02*
X128270000Y-77470000D01*
X125984000Y-77483000D02*
X128257000Y-77483000D01*
X125937500Y-77529500D02*
X125984000Y-77483000D01*
G04 #@! TO.N,Net-(C6-Pad1)*
X132636847Y-82090847D02*
X134590691Y-84044691D01*
X137748016Y-87122000D02*
X138912500Y-87122000D01*
X136692008Y-86065992D02*
X137748016Y-87122000D01*
X134670707Y-84044691D02*
X136692008Y-86065992D01*
D25*
X134250000Y-80477694D02*
X132636847Y-82090847D01*
D24*
X134590691Y-84044691D02*
X134649309Y-84044691D01*
X134649309Y-84044691D02*
X134670707Y-84044691D01*
D25*
X134250000Y-78295000D02*
X134250000Y-80477694D01*
D24*
G04 #@! TO.N,Net-(C2-Pad1)*
X147066000Y-67623500D02*
X149813500Y-67623500D01*
X153512500Y-67577000D02*
X153525500Y-67564000D01*
X149813500Y-67623500D02*
X149860000Y-67577000D01*
X144297500Y-67564000D02*
X147006500Y-67564000D01*
X147006500Y-67564000D02*
X147066000Y-67623500D01*
X149860000Y-67577000D02*
X153512500Y-67577000D01*
G04 #@! TO.N,Net-(C10-Pad1)*
X146558000Y-87062500D02*
X149559500Y-87062500D01*
X149606000Y-87109000D02*
X153512500Y-87109000D01*
X143789500Y-87122000D02*
X146498500Y-87122000D01*
X149559500Y-87062500D02*
X149606000Y-87109000D01*
X146498500Y-87122000D02*
X146558000Y-87062500D01*
X153512500Y-87109000D02*
X153525500Y-87122000D01*
G04 #@! TO.N,Net-(C5-Pad1)*
X137200008Y-68620008D02*
X138256016Y-67564000D01*
X134924707Y-70895309D02*
X137200008Y-68620008D01*
X134649309Y-71090691D02*
X134649309Y-70895309D01*
X132636847Y-73103153D02*
X134649309Y-71090691D01*
X134250000Y-74751000D02*
X134250000Y-76645000D01*
X138256016Y-67564000D02*
X139420500Y-67564000D01*
X132636847Y-73103153D02*
X132636847Y-73137847D01*
X134649309Y-70895309D02*
X134924707Y-70895309D01*
X132636847Y-73137847D02*
X134250000Y-74751000D01*
G04 #@! TO.N,Net-(L1-Pad1)*
X130350847Y-75389153D02*
X131523153Y-74216847D01*
G04 #@! TO.N,Net-(L2-Pad1)*
X130350847Y-79804847D02*
X131523153Y-80977153D01*
G04 #@! TO.N,Net-(L3-Pad1)*
X140995500Y-67564000D02*
X142722500Y-67564000D01*
G04 #@! TO.N,Net-(L4-Pad1)*
X140487500Y-87122000D02*
X142214500Y-87122000D01*
G04 #@! TD*
G04 #@! TA.AperFunction,Conductor*
G04 #@! TO.N,GND*
G36*
X121124162Y-78237187D02*
G01*
X121172450Y-78294967D01*
X121174197Y-78299184D01*
X121203464Y-78369841D01*
X121299718Y-78495282D01*
X121425159Y-78591536D01*
X121571238Y-78652044D01*
X121579426Y-78653122D01*
X121684545Y-78666961D01*
X121688639Y-78667500D01*
X122427910Y-78667500D01*
X123167360Y-78667499D01*
X123171444Y-78666961D01*
X123171450Y-78666961D01*
X123276575Y-78653122D01*
X123276577Y-78653122D01*
X123284762Y-78652044D01*
X123430841Y-78591536D01*
X123556282Y-78495282D01*
X123652536Y-78369841D01*
X123655697Y-78362210D01*
X123658906Y-78354464D01*
X123703456Y-78299184D01*
X123775314Y-78276685D01*
X125079492Y-78276685D01*
X125147613Y-78296687D01*
X125158444Y-78304489D01*
X125281300Y-78403268D01*
X125281306Y-78403272D01*
X125286622Y-78407546D01*
X125292732Y-78410579D01*
X125441164Y-78484262D01*
X125441168Y-78484264D01*
X125447275Y-78487295D01*
X125621306Y-78530685D01*
X125642078Y-78532101D01*
X125660449Y-78533354D01*
X125660460Y-78533354D01*
X125662596Y-78533500D01*
X126305404Y-78533500D01*
X126307540Y-78533354D01*
X126307551Y-78533354D01*
X126325922Y-78532101D01*
X126346694Y-78530685D01*
X126520725Y-78487295D01*
X126526832Y-78484264D01*
X126526836Y-78484262D01*
X126675268Y-78410579D01*
X126681378Y-78407546D01*
X126728274Y-78369841D01*
X126815847Y-78299430D01*
X126821159Y-78295159D01*
X126835573Y-78277232D01*
X126893847Y-78236677D01*
X126933769Y-78230185D01*
X127667316Y-78230185D01*
X127735437Y-78250187D01*
X127756411Y-78267090D01*
X128047090Y-78557769D01*
X128081116Y-78620081D01*
X128083210Y-78660910D01*
X128082471Y-78667499D01*
X128076843Y-78717670D01*
X128097332Y-78900322D01*
X128157776Y-79073896D01*
X128161507Y-79079866D01*
X128161507Y-79079867D01*
X128252344Y-79225237D01*
X128252348Y-79225242D01*
X128255174Y-79229765D01*
X128258410Y-79233396D01*
X128694910Y-79669896D01*
X128698541Y-79673132D01*
X128703064Y-79675958D01*
X128703069Y-79675962D01*
X128762346Y-79713002D01*
X128854410Y-79770530D01*
X128861055Y-79772844D01*
X128861057Y-79772845D01*
X128929558Y-79796699D01*
X129027984Y-79830974D01*
X129092609Y-79838223D01*
X129158074Y-79865694D01*
X129198296Y-79924198D01*
X129203776Y-79949389D01*
X129211026Y-80014016D01*
X129219421Y-80038124D01*
X129267846Y-80177182D01*
X129271470Y-80187590D01*
X129275201Y-80193560D01*
X129275201Y-80193561D01*
X129366038Y-80338931D01*
X129366042Y-80338936D01*
X129368868Y-80343459D01*
X129372104Y-80347090D01*
X129808604Y-80783590D01*
X129812235Y-80786826D01*
X129816758Y-80789652D01*
X129816763Y-80789656D01*
X129947847Y-80871566D01*
X129968104Y-80884224D01*
X129974749Y-80886538D01*
X129974751Y-80886539D01*
X130061277Y-80916670D01*
X130141678Y-80944668D01*
X130148676Y-80945453D01*
X130259002Y-80957829D01*
X130324469Y-80985301D01*
X130364690Y-81043805D01*
X130370171Y-81068998D01*
X130382468Y-81178622D01*
X130383332Y-81186322D01*
X130443776Y-81359896D01*
X130447507Y-81365866D01*
X130447507Y-81365867D01*
X130538344Y-81511237D01*
X130538348Y-81511242D01*
X130541174Y-81515765D01*
X130544410Y-81519396D01*
X130980910Y-81955896D01*
X130984541Y-81959132D01*
X130989064Y-81961958D01*
X130989069Y-81961962D01*
X131094242Y-82027681D01*
X131140410Y-82056530D01*
X131147055Y-82058844D01*
X131147057Y-82058845D01*
X131233583Y-82088976D01*
X131313984Y-82116974D01*
X131378609Y-82124223D01*
X131444074Y-82151694D01*
X131484296Y-82210198D01*
X131489776Y-82235389D01*
X131497026Y-82300016D01*
X131557470Y-82473590D01*
X131561201Y-82479560D01*
X131561201Y-82479561D01*
X131652038Y-82624931D01*
X131652042Y-82624936D01*
X131654868Y-82629459D01*
X131658104Y-82633090D01*
X132094604Y-83069590D01*
X132098235Y-83072826D01*
X132102758Y-83075652D01*
X132102763Y-83075656D01*
X132248133Y-83166493D01*
X132254104Y-83170224D01*
X132260749Y-83172538D01*
X132260751Y-83172539D01*
X132347277Y-83202670D01*
X132427678Y-83230668D01*
X132610330Y-83251157D01*
X132617328Y-83250372D01*
X132667090Y-83244790D01*
X132737016Y-83257074D01*
X132770231Y-83280910D01*
X133154114Y-83664793D01*
X133188140Y-83727105D01*
X133187051Y-83772739D01*
X133189220Y-83773024D01*
X133168582Y-83929786D01*
X133189220Y-84086548D01*
X133249728Y-84232627D01*
X133321814Y-84326571D01*
X134367429Y-85372184D01*
X134370702Y-85374696D01*
X134370706Y-85374699D01*
X134408448Y-85403660D01*
X134461373Y-85444272D01*
X134607452Y-85504780D01*
X134764214Y-85525418D01*
X134772402Y-85524340D01*
X134912788Y-85505858D01*
X134920976Y-85504780D01*
X134951482Y-85492144D01*
X135022072Y-85484555D01*
X135088795Y-85519458D01*
X135470275Y-85900938D01*
X135504301Y-85963250D01*
X135499236Y-86034065D01*
X135456689Y-86090901D01*
X135410273Y-86112628D01*
X135333030Y-86130958D01*
X135319364Y-86135932D01*
X135179291Y-86206229D01*
X135167805Y-86213659D01*
X135096937Y-86271354D01*
X135093202Y-86274727D01*
X135085709Y-86288449D01*
X135085840Y-86290282D01*
X135090091Y-86296897D01*
X136457871Y-87664677D01*
X136471815Y-87672291D01*
X136473648Y-87672160D01*
X136480263Y-87667909D01*
X136482297Y-87665875D01*
X136486681Y-87661013D01*
X136545045Y-87589134D01*
X136552473Y-87577615D01*
X136622516Y-87437436D01*
X136627470Y-87423754D01*
X136645321Y-87347941D01*
X136680404Y-87286218D01*
X136743287Y-87253261D01*
X136814006Y-87259532D01*
X136857062Y-87287725D01*
X137172856Y-87603519D01*
X137185243Y-87617932D01*
X137193497Y-87629149D01*
X137193501Y-87629153D01*
X137197839Y-87635048D01*
X137237470Y-87668717D01*
X137244974Y-87675637D01*
X137250529Y-87681192D01*
X137253390Y-87683455D01*
X137253395Y-87683460D01*
X137272431Y-87698520D01*
X137275833Y-87701309D01*
X137330622Y-87747856D01*
X137337143Y-87751186D01*
X137341993Y-87754420D01*
X137346978Y-87757499D01*
X137352719Y-87762041D01*
X137417838Y-87792476D01*
X137421772Y-87794400D01*
X137485795Y-87827091D01*
X137492904Y-87828830D01*
X137498372Y-87830864D01*
X137503933Y-87832714D01*
X137510563Y-87835813D01*
X137580937Y-87850451D01*
X137585225Y-87851422D01*
X137649581Y-87867170D01*
X137649585Y-87867171D01*
X137655034Y-87868504D01*
X137660634Y-87868851D01*
X137660638Y-87868852D01*
X137666012Y-87869185D01*
X137666010Y-87869215D01*
X137670196Y-87869466D01*
X137673979Y-87869804D01*
X137681144Y-87871294D01*
X137757382Y-87869231D01*
X137760790Y-87869185D01*
X137976683Y-87869185D01*
X138044804Y-87889187D01*
X138075155Y-87916577D01*
X138110787Y-87961213D01*
X138254429Y-88075880D01*
X138419905Y-88155875D01*
X138497656Y-88173825D01*
X138593793Y-88196020D01*
X138593796Y-88196020D01*
X138598992Y-88197220D01*
X138603848Y-88197500D01*
X139221152Y-88197500D01*
X139226008Y-88197220D01*
X139231204Y-88196020D01*
X139231207Y-88196020D01*
X139327344Y-88173825D01*
X139405095Y-88155875D01*
X139570571Y-88075880D01*
X139621392Y-88035311D01*
X139687108Y-88008443D01*
X139756917Y-88021370D01*
X139778607Y-88035310D01*
X139829429Y-88075880D01*
X139994905Y-88155875D01*
X140072656Y-88173825D01*
X140168793Y-88196020D01*
X140168796Y-88196020D01*
X140173992Y-88197220D01*
X140178848Y-88197500D01*
X140796152Y-88197500D01*
X140801008Y-88197220D01*
X140806204Y-88196020D01*
X140806207Y-88196020D01*
X140902344Y-88173825D01*
X140980095Y-88155875D01*
X141145571Y-88075880D01*
X141151071Y-88071490D01*
X141151075Y-88071487D01*
X141272392Y-87974641D01*
X141338108Y-87947774D01*
X141407918Y-87960702D01*
X141429608Y-87974641D01*
X141550925Y-88071487D01*
X141550929Y-88071490D01*
X141556429Y-88075880D01*
X141721905Y-88155875D01*
X141799656Y-88173825D01*
X141895793Y-88196020D01*
X141895796Y-88196020D01*
X141900992Y-88197220D01*
X141905848Y-88197500D01*
X142523152Y-88197500D01*
X142528008Y-88197220D01*
X142533204Y-88196020D01*
X142533207Y-88196020D01*
X142629344Y-88173825D01*
X142707095Y-88155875D01*
X142872571Y-88075880D01*
X142923392Y-88035311D01*
X142989108Y-88008443D01*
X143058917Y-88021370D01*
X143080607Y-88035310D01*
X143131429Y-88075880D01*
X143296905Y-88155875D01*
X143374656Y-88173825D01*
X143470793Y-88196020D01*
X143470796Y-88196020D01*
X143475992Y-88197220D01*
X143480848Y-88197500D01*
X144098152Y-88197500D01*
X144103008Y-88197220D01*
X144108204Y-88196020D01*
X144108207Y-88196020D01*
X144204344Y-88173825D01*
X144282095Y-88155875D01*
X144447571Y-88075880D01*
X144591213Y-87961213D01*
X144626845Y-87916577D01*
X144684976Y-87875818D01*
X144725317Y-87869185D01*
X145245502Y-87869185D01*
X145313623Y-87889187D01*
X145345465Y-87918481D01*
X145421060Y-88016998D01*
X145429718Y-88028282D01*
X145555159Y-88124536D01*
X145701238Y-88185044D01*
X145709426Y-88186122D01*
X145814545Y-88199961D01*
X145818639Y-88200500D01*
X146557910Y-88200500D01*
X147297360Y-88200499D01*
X147301444Y-88199961D01*
X147301450Y-88199961D01*
X147406575Y-88186122D01*
X147406577Y-88186122D01*
X147414762Y-88185044D01*
X147560841Y-88124536D01*
X147686282Y-88028282D01*
X147694941Y-88016998D01*
X147748541Y-87947144D01*
X147782536Y-87902841D01*
X147788192Y-87889187D01*
X147788906Y-87887464D01*
X147833456Y-87832184D01*
X147905314Y-87809685D01*
X148618845Y-87809685D01*
X148686966Y-87829687D01*
X148717038Y-87856729D01*
X148736973Y-87881524D01*
X148764068Y-87947144D01*
X148751385Y-88016998D01*
X148746035Y-88026589D01*
X148690996Y-88115880D01*
X148684849Y-88129061D01*
X148635509Y-88277814D01*
X148632642Y-88291190D01*
X148623328Y-88382097D01*
X148623071Y-88387126D01*
X148627475Y-88402124D01*
X148628865Y-88403329D01*
X148636548Y-88405000D01*
X150570885Y-88405000D01*
X150586124Y-88400525D01*
X150587329Y-88399135D01*
X150589000Y-88391452D01*
X150589000Y-88388562D01*
X150588663Y-88382047D01*
X150579106Y-88289943D01*
X150576212Y-88276544D01*
X150526619Y-88127893D01*
X150520445Y-88114715D01*
X150479463Y-88048488D01*
X150460625Y-87980036D01*
X150481786Y-87912267D01*
X150536227Y-87866695D01*
X150586607Y-87856185D01*
X151032416Y-87856185D01*
X151100537Y-87876187D01*
X151148825Y-87933967D01*
X151163710Y-87969902D01*
X151200964Y-88059841D01*
X151297218Y-88185282D01*
X151303764Y-88190305D01*
X151333418Y-88213059D01*
X151422659Y-88281536D01*
X151568738Y-88342044D01*
X151686139Y-88357500D01*
X151690261Y-88357500D01*
X153526839Y-88357499D01*
X155364860Y-88357499D01*
X155365946Y-88357356D01*
X155434544Y-88372708D01*
X155484445Y-88423210D01*
X155499499Y-88482933D01*
X155499499Y-88638000D01*
X155479497Y-88706121D01*
X155425841Y-88752614D01*
X155373499Y-88764000D01*
X153597615Y-88764000D01*
X153582376Y-88768475D01*
X153581171Y-88769865D01*
X153579500Y-88777548D01*
X153579500Y-91111884D01*
X153583975Y-91127123D01*
X153585365Y-91128328D01*
X153593048Y-91129999D01*
X155373499Y-91129999D01*
X155441620Y-91150001D01*
X155488113Y-91203657D01*
X155499499Y-91255999D01*
X155499498Y-98997297D01*
X155499378Y-99002793D01*
X155491023Y-99194155D01*
X155491009Y-99194478D01*
X155481841Y-99392779D01*
X155480897Y-99403406D01*
X155454892Y-99600936D01*
X155454762Y-99601898D01*
X155428030Y-99793533D01*
X155426251Y-99803397D01*
X155382917Y-99998861D01*
X155382557Y-100000436D01*
X155338493Y-100187787D01*
X155336009Y-100196827D01*
X155275677Y-100388177D01*
X155275676Y-100388179D01*
X155274987Y-100390298D01*
X155213958Y-100572385D01*
X155210902Y-100580554D01*
X155205975Y-100592449D01*
X155134030Y-100766139D01*
X155132892Y-100768799D01*
X155055414Y-100944268D01*
X155051928Y-100951524D01*
X155003993Y-101043607D01*
X154959142Y-101129764D01*
X154957456Y-101132895D01*
X154864176Y-101300366D01*
X154860368Y-101306751D01*
X154752339Y-101476324D01*
X154750048Y-101479789D01*
X154641758Y-101637872D01*
X154637801Y-101643328D01*
X154515363Y-101802893D01*
X154512392Y-101806615D01*
X154389982Y-101954028D01*
X154389980Y-101954030D01*
X154385941Y-101958659D01*
X154250108Y-102106895D01*
X154246306Y-102110866D01*
X154110866Y-102246306D01*
X154106895Y-102250108D01*
X153958659Y-102385941D01*
X153954033Y-102389977D01*
X153806615Y-102512392D01*
X153802893Y-102515363D01*
X153643328Y-102637801D01*
X153637872Y-102641758D01*
X153479789Y-102750048D01*
X153476324Y-102752339D01*
X153324495Y-102849064D01*
X153306753Y-102860367D01*
X153300366Y-102864176D01*
X153132895Y-102957456D01*
X153129764Y-102959142D01*
X153043607Y-103003993D01*
X152951524Y-103051928D01*
X152944268Y-103055414D01*
X152768815Y-103132885D01*
X152766155Y-103134023D01*
X152580554Y-103210902D01*
X152572390Y-103213956D01*
X152390298Y-103274987D01*
X152388215Y-103275664D01*
X152288246Y-103307185D01*
X152196829Y-103336008D01*
X152187787Y-103338493D01*
X152000436Y-103382557D01*
X151998861Y-103382917D01*
X151836251Y-103418967D01*
X151803394Y-103426252D01*
X151793539Y-103428029D01*
X151601846Y-103454769D01*
X151600936Y-103454892D01*
X151403406Y-103480897D01*
X151392780Y-103481841D01*
X151194424Y-103491011D01*
X151194211Y-103491020D01*
X151002793Y-103499378D01*
X151002747Y-103499380D01*
X150997251Y-103499500D01*
X120002751Y-103499498D01*
X119997255Y-103499378D01*
X119805791Y-103491018D01*
X119805578Y-103491009D01*
X119607222Y-103481839D01*
X119596596Y-103480895D01*
X119399066Y-103454890D01*
X119398156Y-103454767D01*
X119206463Y-103428027D01*
X119196608Y-103426250D01*
X119163751Y-103418965D01*
X119001141Y-103382915D01*
X118999566Y-103382555D01*
X118812215Y-103338491D01*
X118803173Y-103336006D01*
X118711756Y-103307183D01*
X118611787Y-103275662D01*
X118609704Y-103274985D01*
X118427612Y-103213954D01*
X118419446Y-103210899D01*
X118233847Y-103134021D01*
X118231187Y-103132883D01*
X118055734Y-103055412D01*
X118048478Y-103051926D01*
X117956395Y-103003991D01*
X117870238Y-102959140D01*
X117867107Y-102957454D01*
X117699636Y-102864174D01*
X117693249Y-102860365D01*
X117675507Y-102849062D01*
X117523678Y-102752337D01*
X117520213Y-102750046D01*
X117362130Y-102641756D01*
X117356674Y-102637799D01*
X117197109Y-102515361D01*
X117193372Y-102512377D01*
X117045969Y-102389975D01*
X117041343Y-102385939D01*
X116893107Y-102250106D01*
X116889136Y-102246304D01*
X116753696Y-102110864D01*
X116749894Y-102106893D01*
X116614061Y-101958657D01*
X116610022Y-101954028D01*
X116487627Y-101806633D01*
X116487610Y-101806613D01*
X116484639Y-101802891D01*
X116362201Y-101643326D01*
X116358244Y-101637870D01*
X116249954Y-101479787D01*
X116247663Y-101476322D01*
X116139635Y-101306751D01*
X116135826Y-101300364D01*
X116042546Y-101132893D01*
X116040860Y-101129762D01*
X115996009Y-101043605D01*
X115948074Y-100951522D01*
X115944581Y-100944252D01*
X115867110Y-100768797D01*
X115865972Y-100766137D01*
X115789100Y-100580552D01*
X115786044Y-100572383D01*
X115772214Y-100531120D01*
X115725015Y-100390296D01*
X115724326Y-100388177D01*
X115663994Y-100196827D01*
X115661509Y-100187785D01*
X115617445Y-100000434D01*
X115617085Y-99998859D01*
X115581035Y-99836249D01*
X115573750Y-99803392D01*
X115571973Y-99793537D01*
X115545233Y-99601844D01*
X115545110Y-99600934D01*
X115519105Y-99403404D01*
X115518161Y-99392777D01*
X115508993Y-99194476D01*
X115508979Y-99194153D01*
X115500622Y-99002745D01*
X115500562Y-99000000D01*
X118388094Y-99000000D01*
X118407939Y-99252158D01*
X118409093Y-99256965D01*
X118409094Y-99256971D01*
X118441699Y-99392777D01*
X118466986Y-99498106D01*
X118468879Y-99502677D01*
X118468880Y-99502679D01*
X118509956Y-99601844D01*
X118563781Y-99731790D01*
X118695941Y-99947455D01*
X118860210Y-100139790D01*
X119052545Y-100304059D01*
X119268210Y-100436219D01*
X119272780Y-100438112D01*
X119272784Y-100438114D01*
X119488188Y-100527337D01*
X119501894Y-100533014D01*
X119587655Y-100553604D01*
X119743029Y-100590906D01*
X119743035Y-100590907D01*
X119747842Y-100592061D01*
X120000000Y-100611906D01*
X120252158Y-100592061D01*
X120256965Y-100590907D01*
X120256971Y-100590906D01*
X120412345Y-100553604D01*
X120498106Y-100533014D01*
X120511812Y-100527337D01*
X120727216Y-100438114D01*
X120727220Y-100438112D01*
X120731790Y-100436219D01*
X120947455Y-100304059D01*
X121139790Y-100139790D01*
X121304059Y-99947455D01*
X121436219Y-99731790D01*
X121490045Y-99601844D01*
X121531120Y-99502679D01*
X121531121Y-99502677D01*
X121533014Y-99498106D01*
X121558301Y-99392777D01*
X121590906Y-99256971D01*
X121590907Y-99256965D01*
X121592061Y-99252158D01*
X121611906Y-99000000D01*
X149388094Y-99000000D01*
X149407939Y-99252158D01*
X149409093Y-99256965D01*
X149409094Y-99256971D01*
X149441699Y-99392777D01*
X149466986Y-99498106D01*
X149468879Y-99502677D01*
X149468880Y-99502679D01*
X149509956Y-99601844D01*
X149563781Y-99731790D01*
X149695941Y-99947455D01*
X149860210Y-100139790D01*
X150052545Y-100304059D01*
X150268210Y-100436219D01*
X150272780Y-100438112D01*
X150272784Y-100438114D01*
X150488188Y-100527337D01*
X150501894Y-100533014D01*
X150587655Y-100553604D01*
X150743029Y-100590906D01*
X150743035Y-100590907D01*
X150747842Y-100592061D01*
X151000000Y-100611906D01*
X151252158Y-100592061D01*
X151256965Y-100590907D01*
X151256971Y-100590906D01*
X151412345Y-100553604D01*
X151498106Y-100533014D01*
X151511812Y-100527337D01*
X151727216Y-100438114D01*
X151727220Y-100438112D01*
X151731790Y-100436219D01*
X151947455Y-100304059D01*
X152139790Y-100139790D01*
X152304059Y-99947455D01*
X152436219Y-99731790D01*
X152490045Y-99601844D01*
X152531120Y-99502679D01*
X152531121Y-99502677D01*
X152533014Y-99498106D01*
X152558301Y-99392777D01*
X152590906Y-99256971D01*
X152590907Y-99256965D01*
X152592061Y-99252158D01*
X152611906Y-99000000D01*
X152592061Y-98747842D01*
X152590907Y-98743035D01*
X152590906Y-98743029D01*
X152534169Y-98506706D01*
X152533014Y-98501894D01*
X152436219Y-98268210D01*
X152304059Y-98052545D01*
X152139790Y-97860210D01*
X151947455Y-97695941D01*
X151731790Y-97563781D01*
X151727220Y-97561888D01*
X151727216Y-97561886D01*
X151502679Y-97468880D01*
X151502677Y-97468879D01*
X151498106Y-97466986D01*
X151412345Y-97446396D01*
X151256971Y-97409094D01*
X151256965Y-97409093D01*
X151252158Y-97407939D01*
X151000000Y-97388094D01*
X150747842Y-97407939D01*
X150743035Y-97409093D01*
X150743029Y-97409094D01*
X150587655Y-97446396D01*
X150501894Y-97466986D01*
X150497323Y-97468879D01*
X150497321Y-97468880D01*
X150272784Y-97561886D01*
X150272780Y-97561888D01*
X150268210Y-97563781D01*
X150052545Y-97695941D01*
X149860210Y-97860210D01*
X149695941Y-98052545D01*
X149563781Y-98268210D01*
X149466986Y-98501894D01*
X149465831Y-98506706D01*
X149409094Y-98743029D01*
X149409093Y-98743035D01*
X149407939Y-98747842D01*
X149388094Y-99000000D01*
X121611906Y-99000000D01*
X121592061Y-98747842D01*
X121590907Y-98743035D01*
X121590906Y-98743029D01*
X121534169Y-98506706D01*
X121533014Y-98501894D01*
X121436219Y-98268210D01*
X121304059Y-98052545D01*
X121139790Y-97860210D01*
X120947455Y-97695941D01*
X120731790Y-97563781D01*
X120727220Y-97561888D01*
X120727216Y-97561886D01*
X120502679Y-97468880D01*
X120502677Y-97468879D01*
X120498106Y-97466986D01*
X120412345Y-97446396D01*
X120256971Y-97409094D01*
X120256965Y-97409093D01*
X120252158Y-97407939D01*
X120000000Y-97388094D01*
X119747842Y-97407939D01*
X119743035Y-97409093D01*
X119743029Y-97409094D01*
X119587655Y-97446396D01*
X119501894Y-97466986D01*
X119497323Y-97468879D01*
X119497321Y-97468880D01*
X119272784Y-97561886D01*
X119272780Y-97561888D01*
X119268210Y-97563781D01*
X119052545Y-97695941D01*
X118860210Y-97860210D01*
X118695941Y-98052545D01*
X118563781Y-98268210D01*
X118466986Y-98501894D01*
X118465831Y-98506706D01*
X118409094Y-98743029D01*
X118409093Y-98743035D01*
X118407939Y-98747842D01*
X118388094Y-99000000D01*
X115500562Y-99000000D01*
X115500502Y-98997249D01*
X115500502Y-91319669D01*
X145350001Y-91319669D01*
X145350371Y-91326490D01*
X145355895Y-91377352D01*
X145359521Y-91392604D01*
X145404676Y-91513054D01*
X145413214Y-91528649D01*
X145489715Y-91630724D01*
X145502276Y-91643285D01*
X145604351Y-91719786D01*
X145619946Y-91728324D01*
X145740394Y-91773478D01*
X145755649Y-91777105D01*
X145806514Y-91782631D01*
X145813328Y-91783000D01*
X146285885Y-91783000D01*
X146301124Y-91778525D01*
X146302329Y-91777135D01*
X146304000Y-91769452D01*
X146304000Y-91764884D01*
X146812000Y-91764884D01*
X146816475Y-91780123D01*
X146817865Y-91781328D01*
X146825548Y-91782999D01*
X147302669Y-91782999D01*
X147309490Y-91782629D01*
X147360352Y-91777105D01*
X147375604Y-91773479D01*
X147496054Y-91728324D01*
X147511649Y-91719786D01*
X147613724Y-91643285D01*
X147626285Y-91630724D01*
X147702786Y-91528649D01*
X147711324Y-91513054D01*
X147756478Y-91392606D01*
X147760105Y-91377351D01*
X147765631Y-91326486D01*
X147766000Y-91319672D01*
X147766000Y-91009615D01*
X147761525Y-90994376D01*
X147760135Y-90993171D01*
X147752452Y-90991500D01*
X146830115Y-90991500D01*
X146814876Y-90995975D01*
X146813671Y-90997365D01*
X146812000Y-91005048D01*
X146812000Y-91764884D01*
X146304000Y-91764884D01*
X146304000Y-91009615D01*
X146299525Y-90994376D01*
X146298135Y-90993171D01*
X146290452Y-90991500D01*
X145368116Y-90991500D01*
X145352877Y-90995975D01*
X145351672Y-90997365D01*
X145350001Y-91005048D01*
X145350001Y-91319669D01*
X115500502Y-91319669D01*
X115500502Y-90666669D01*
X150717501Y-90666669D01*
X150717871Y-90673490D01*
X150723395Y-90724352D01*
X150727021Y-90739604D01*
X150772176Y-90860054D01*
X150780714Y-90875649D01*
X150857215Y-90977724D01*
X150869776Y-90990285D01*
X150971851Y-91066786D01*
X150987446Y-91075324D01*
X151107894Y-91120478D01*
X151123149Y-91124105D01*
X151174014Y-91129631D01*
X151180828Y-91130000D01*
X153053385Y-91130000D01*
X153068624Y-91125525D01*
X153069829Y-91124135D01*
X153071500Y-91116452D01*
X153071500Y-90219115D01*
X153067025Y-90203876D01*
X153065635Y-90202671D01*
X153057952Y-90201000D01*
X150735616Y-90201000D01*
X150720377Y-90205475D01*
X150719172Y-90206865D01*
X150717501Y-90214548D01*
X150717501Y-90666669D01*
X115500502Y-90666669D01*
X115500502Y-90465385D01*
X145350000Y-90465385D01*
X145354475Y-90480624D01*
X145355865Y-90481829D01*
X145363548Y-90483500D01*
X146285885Y-90483500D01*
X146301124Y-90479025D01*
X146302329Y-90477635D01*
X146304000Y-90469952D01*
X146304000Y-90465385D01*
X146812000Y-90465385D01*
X146816475Y-90480624D01*
X146817865Y-90481829D01*
X146825548Y-90483500D01*
X147747884Y-90483500D01*
X147763123Y-90479025D01*
X147764328Y-90477635D01*
X147765999Y-90469952D01*
X147765999Y-90155331D01*
X147765629Y-90148510D01*
X147760105Y-90097648D01*
X147756479Y-90082396D01*
X147711324Y-89961946D01*
X147702786Y-89946351D01*
X147626285Y-89844276D01*
X147613724Y-89831715D01*
X147511649Y-89755214D01*
X147496054Y-89746676D01*
X147375606Y-89701522D01*
X147360351Y-89697895D01*
X147309486Y-89692369D01*
X147302672Y-89692000D01*
X146830115Y-89692000D01*
X146814876Y-89696475D01*
X146813671Y-89697865D01*
X146812000Y-89705548D01*
X146812000Y-90465385D01*
X146304000Y-90465385D01*
X146304000Y-89710116D01*
X146299525Y-89694877D01*
X146298135Y-89693672D01*
X146290452Y-89692001D01*
X145813331Y-89692001D01*
X145806510Y-89692371D01*
X145755648Y-89697895D01*
X145740396Y-89701521D01*
X145619946Y-89746676D01*
X145604351Y-89755214D01*
X145502276Y-89831715D01*
X145489715Y-89844276D01*
X145413214Y-89946351D01*
X145404676Y-89961946D01*
X145359522Y-90082394D01*
X145355895Y-90097649D01*
X145350369Y-90148514D01*
X145350000Y-90155328D01*
X145350000Y-90465385D01*
X115500502Y-90465385D01*
X115500502Y-88929438D01*
X148623000Y-88929438D01*
X148623337Y-88935953D01*
X148632894Y-89028057D01*
X148635788Y-89041456D01*
X148685381Y-89190107D01*
X148691555Y-89203286D01*
X148773788Y-89336173D01*
X148782824Y-89347574D01*
X148893429Y-89457986D01*
X148904840Y-89466998D01*
X149037880Y-89549004D01*
X149051061Y-89555151D01*
X149199814Y-89604491D01*
X149213190Y-89607358D01*
X149304097Y-89616672D01*
X149310513Y-89617000D01*
X149333885Y-89617000D01*
X149349124Y-89612525D01*
X149350329Y-89611135D01*
X149352000Y-89603452D01*
X149352000Y-89598885D01*
X149860000Y-89598885D01*
X149864475Y-89614124D01*
X149865865Y-89615329D01*
X149873548Y-89617000D01*
X149901438Y-89617000D01*
X149907953Y-89616663D01*
X150000057Y-89607106D01*
X150013456Y-89604212D01*
X150162107Y-89554619D01*
X150175286Y-89548445D01*
X150308173Y-89466212D01*
X150319574Y-89457176D01*
X150429986Y-89346571D01*
X150438998Y-89335160D01*
X150484240Y-89261763D01*
X150537012Y-89214270D01*
X150607083Y-89202846D01*
X150672207Y-89231120D01*
X150711707Y-89290114D01*
X150717500Y-89327879D01*
X150717500Y-89674885D01*
X150721975Y-89690124D01*
X150723365Y-89691329D01*
X150731048Y-89693000D01*
X153053385Y-89693000D01*
X153068624Y-89688525D01*
X153069829Y-89687135D01*
X153071500Y-89679452D01*
X153071500Y-88782116D01*
X153067025Y-88766877D01*
X153065635Y-88765672D01*
X153057952Y-88764001D01*
X151180831Y-88764001D01*
X151174010Y-88764371D01*
X151123148Y-88769895D01*
X151107896Y-88773521D01*
X150987446Y-88818676D01*
X150971851Y-88827214D01*
X150869776Y-88903715D01*
X150857215Y-88916276D01*
X150812226Y-88976305D01*
X150755367Y-89018820D01*
X150684549Y-89023846D01*
X150622255Y-88989786D01*
X150590504Y-88936238D01*
X150584525Y-88915876D01*
X150583135Y-88914671D01*
X150575452Y-88913000D01*
X149878115Y-88913000D01*
X149862876Y-88917475D01*
X149861671Y-88918865D01*
X149860000Y-88926548D01*
X149860000Y-89598885D01*
X149352000Y-89598885D01*
X149352000Y-88931115D01*
X149347525Y-88915876D01*
X149346135Y-88914671D01*
X149338452Y-88913000D01*
X148641115Y-88913000D01*
X148625876Y-88917475D01*
X148624671Y-88918865D01*
X148623000Y-88926548D01*
X148623000Y-88929438D01*
X115500502Y-88929438D01*
X115500502Y-87563324D01*
X131496214Y-87563324D01*
X131496346Y-87565160D01*
X131500595Y-87571772D01*
X131837970Y-87909147D01*
X131843052Y-87913708D01*
X131882926Y-87945768D01*
X131896279Y-87953991D01*
X132013382Y-88007234D01*
X132030437Y-88012221D01*
X132156707Y-88030304D01*
X132174485Y-88030304D01*
X132245374Y-88020152D01*
X135103386Y-88020152D01*
X135103518Y-88021988D01*
X135107767Y-88028600D01*
X135127487Y-88048320D01*
X135132328Y-88052685D01*
X135204225Y-88111064D01*
X135215740Y-88118488D01*
X135355920Y-88188532D01*
X135369602Y-88193486D01*
X135521724Y-88229306D01*
X135536166Y-88230977D01*
X135692455Y-88230840D01*
X135706890Y-88229145D01*
X135858955Y-88193057D01*
X135872620Y-88188084D01*
X136012693Y-88117787D01*
X136024179Y-88110357D01*
X136095047Y-88052662D01*
X136098782Y-88049289D01*
X136106275Y-88035567D01*
X136106144Y-88033734D01*
X136101893Y-88027119D01*
X135608804Y-87534030D01*
X135594860Y-87526416D01*
X135593027Y-87526547D01*
X135586412Y-87530798D01*
X135110997Y-88006214D01*
X135103386Y-88020152D01*
X132245374Y-88020152D01*
X132300755Y-88012221D01*
X132317810Y-88007234D01*
X132434916Y-87953989D01*
X132448263Y-87945770D01*
X132488141Y-87913707D01*
X132493218Y-87909152D01*
X132712459Y-87689911D01*
X132720073Y-87675967D01*
X132719942Y-87674134D01*
X132715691Y-87667519D01*
X132063503Y-87015331D01*
X132049559Y-87007717D01*
X132047726Y-87007848D01*
X132041111Y-87012099D01*
X131503825Y-87549386D01*
X131496214Y-87563324D01*
X115500502Y-87563324D01*
X115500502Y-86537293D01*
X130663696Y-86537293D01*
X130681779Y-86663563D01*
X130686766Y-86680618D01*
X130740012Y-86797727D01*
X130748229Y-86811071D01*
X130780298Y-86850956D01*
X130784837Y-86856015D01*
X131118998Y-87190175D01*
X131132936Y-87197786D01*
X131134772Y-87197654D01*
X131141384Y-87193405D01*
X131678670Y-86656120D01*
X131685047Y-86644441D01*
X132415099Y-86644441D01*
X132415230Y-86646275D01*
X132419481Y-86652889D01*
X133071669Y-87305077D01*
X133085613Y-87312691D01*
X133087446Y-87312560D01*
X133094060Y-87308310D01*
X133316541Y-87085828D01*
X133321082Y-87080767D01*
X133332290Y-87066827D01*
X134527023Y-87066827D01*
X134527160Y-87223116D01*
X134528855Y-87237551D01*
X134564943Y-87389616D01*
X134569916Y-87403281D01*
X134640213Y-87543354D01*
X134647643Y-87554840D01*
X134705338Y-87625708D01*
X134709646Y-87630479D01*
X134726166Y-87646999D01*
X134740110Y-87654613D01*
X134741945Y-87654482D01*
X134748555Y-87650234D01*
X135223971Y-87174819D01*
X135231584Y-87160876D01*
X135231453Y-87159042D01*
X135227202Y-87152428D01*
X134734113Y-86659339D01*
X134720169Y-86651725D01*
X134718336Y-86651856D01*
X134711721Y-86656107D01*
X134709687Y-86658141D01*
X134705303Y-86663003D01*
X134646939Y-86734882D01*
X134639511Y-86746401D01*
X134569468Y-86886580D01*
X134564514Y-86900262D01*
X134528694Y-87052385D01*
X134527023Y-87066827D01*
X133332290Y-87066827D01*
X133353153Y-87040879D01*
X133361371Y-87027535D01*
X133414616Y-86910428D01*
X133419603Y-86893373D01*
X133437686Y-86767103D01*
X133437686Y-86749325D01*
X133419603Y-86623055D01*
X133414616Y-86606000D01*
X133361370Y-86488891D01*
X133353153Y-86475547D01*
X133321084Y-86435662D01*
X133316545Y-86430603D01*
X132982384Y-86096443D01*
X132968446Y-86088832D01*
X132966610Y-86088964D01*
X132959998Y-86093213D01*
X132422712Y-86630498D01*
X132415099Y-86644441D01*
X131685047Y-86644441D01*
X131686283Y-86642177D01*
X131686152Y-86640343D01*
X131681901Y-86633729D01*
X131029713Y-85981541D01*
X131015769Y-85973927D01*
X131013936Y-85974058D01*
X131007322Y-85978308D01*
X130784841Y-86200790D01*
X130780300Y-86205851D01*
X130748229Y-86245739D01*
X130740011Y-86259083D01*
X130686766Y-86376190D01*
X130681779Y-86393245D01*
X130663696Y-86519515D01*
X130663696Y-86537293D01*
X115500502Y-86537293D01*
X115500502Y-85610651D01*
X131381309Y-85610651D01*
X131381440Y-85612484D01*
X131385691Y-85619099D01*
X132037879Y-86271287D01*
X132051823Y-86278901D01*
X132053656Y-86278770D01*
X132060271Y-86274519D01*
X132597557Y-85737232D01*
X132605168Y-85723294D01*
X132605036Y-85721458D01*
X132600787Y-85714846D01*
X132263412Y-85377471D01*
X132258330Y-85372910D01*
X132218456Y-85340850D01*
X132205103Y-85332627D01*
X132088000Y-85279384D01*
X132070945Y-85274397D01*
X131944675Y-85256314D01*
X131926897Y-85256314D01*
X131800627Y-85274397D01*
X131783572Y-85279384D01*
X131666466Y-85332629D01*
X131653119Y-85340848D01*
X131613241Y-85372911D01*
X131608164Y-85377466D01*
X131388923Y-85596707D01*
X131381309Y-85610651D01*
X115500502Y-85610651D01*
X115500501Y-81604000D01*
X115520503Y-81535879D01*
X115574159Y-81489386D01*
X115626501Y-81478000D01*
X117329885Y-81478000D01*
X117345124Y-81473525D01*
X117346329Y-81472135D01*
X117348000Y-81464452D01*
X117348000Y-81459884D01*
X117856000Y-81459884D01*
X117860475Y-81475123D01*
X117861865Y-81476328D01*
X117869548Y-81477999D01*
X119746669Y-81477999D01*
X119753490Y-81477629D01*
X119804352Y-81472105D01*
X119819604Y-81468479D01*
X119940054Y-81423324D01*
X119955649Y-81414786D01*
X120057724Y-81338285D01*
X120070285Y-81325724D01*
X120146786Y-81223649D01*
X120155324Y-81208054D01*
X120200478Y-81087606D01*
X120204105Y-81072351D01*
X120209631Y-81021486D01*
X120210000Y-81014672D01*
X120210000Y-80567115D01*
X120205525Y-80551876D01*
X120204135Y-80550671D01*
X120196452Y-80549000D01*
X117874115Y-80549000D01*
X117858876Y-80553475D01*
X117857671Y-80554865D01*
X117856000Y-80562548D01*
X117856000Y-81459884D01*
X117348000Y-81459884D01*
X117348000Y-80022885D01*
X117856000Y-80022885D01*
X117860475Y-80038124D01*
X117861865Y-80039329D01*
X117869548Y-80041000D01*
X120191884Y-80041000D01*
X120207123Y-80036525D01*
X120208328Y-80035135D01*
X120209999Y-80027452D01*
X120209999Y-79575331D01*
X120209629Y-79568510D01*
X120204105Y-79517648D01*
X120200479Y-79502396D01*
X120155324Y-79381946D01*
X120146786Y-79366351D01*
X120070285Y-79264276D01*
X120057724Y-79251715D01*
X119955649Y-79175214D01*
X119940054Y-79166676D01*
X119819606Y-79121522D01*
X119804351Y-79117895D01*
X119753486Y-79112369D01*
X119746672Y-79112000D01*
X117874115Y-79112000D01*
X117858876Y-79116475D01*
X117857671Y-79117865D01*
X117856000Y-79125548D01*
X117856000Y-80022885D01*
X117348000Y-80022885D01*
X117348000Y-79130116D01*
X117343525Y-79114877D01*
X117342135Y-79113672D01*
X117334452Y-79112001D01*
X115626501Y-79112001D01*
X115558380Y-79091999D01*
X115511887Y-79038343D01*
X115500501Y-78986001D01*
X115500501Y-78831500D01*
X115520503Y-78763379D01*
X115574159Y-78716886D01*
X115626501Y-78705500D01*
X119018261Y-78705499D01*
X119241360Y-78705499D01*
X119245444Y-78704961D01*
X119245450Y-78704961D01*
X119350575Y-78691122D01*
X119350577Y-78691122D01*
X119358762Y-78690044D01*
X119504841Y-78629536D01*
X119630282Y-78533282D01*
X119726536Y-78407841D01*
X119773290Y-78294967D01*
X119817838Y-78239686D01*
X119889699Y-78217185D01*
X121056041Y-78217185D01*
X121124162Y-78237187D01*
G37*
G04 #@! TD.AperFunction*
G04 #@! TA.AperFunction,Conductor*
G36*
X145762162Y-68331187D02*
G01*
X145810450Y-68388967D01*
X145815703Y-68401648D01*
X145841464Y-68463841D01*
X145937718Y-68589282D01*
X145944264Y-68594305D01*
X145962638Y-68608404D01*
X146063159Y-68685536D01*
X146209238Y-68746044D01*
X146217426Y-68747122D01*
X146322545Y-68760961D01*
X146326639Y-68761500D01*
X147065910Y-68761500D01*
X147805360Y-68761499D01*
X147809444Y-68760961D01*
X147809450Y-68760961D01*
X147914575Y-68747122D01*
X147914577Y-68747122D01*
X147922762Y-68746044D01*
X148068841Y-68685536D01*
X148169362Y-68608404D01*
X148187736Y-68594305D01*
X148194282Y-68589282D01*
X148290536Y-68463841D01*
X148293697Y-68456210D01*
X148296906Y-68448464D01*
X148341456Y-68393184D01*
X148413314Y-68370685D01*
X148955492Y-68370685D01*
X149023613Y-68390687D01*
X149034444Y-68398489D01*
X149157300Y-68497268D01*
X149157306Y-68497272D01*
X149162622Y-68501546D01*
X149168732Y-68504579D01*
X149317164Y-68578262D01*
X149317168Y-68578264D01*
X149323275Y-68581295D01*
X149497306Y-68624685D01*
X149518078Y-68626101D01*
X149536449Y-68627354D01*
X149536460Y-68627354D01*
X149538596Y-68627500D01*
X150181404Y-68627500D01*
X150183540Y-68627354D01*
X150183551Y-68627354D01*
X150201922Y-68626101D01*
X150222694Y-68624685D01*
X150396725Y-68581295D01*
X150402832Y-68578264D01*
X150402836Y-68578262D01*
X150551268Y-68504579D01*
X150557378Y-68501546D01*
X150583588Y-68480473D01*
X150691847Y-68393430D01*
X150697159Y-68389159D01*
X150711573Y-68371232D01*
X150769847Y-68330677D01*
X150809769Y-68324185D01*
X151043186Y-68324185D01*
X151111307Y-68344187D01*
X151159595Y-68401966D01*
X151200964Y-68501841D01*
X151297218Y-68627282D01*
X151422659Y-68723536D01*
X151568738Y-68784044D01*
X151686139Y-68799500D01*
X151690261Y-68799500D01*
X153526839Y-68799499D01*
X155364860Y-68799499D01*
X155365946Y-68799356D01*
X155434544Y-68814708D01*
X155484445Y-68865210D01*
X155499499Y-68924933D01*
X155499499Y-69080000D01*
X155479497Y-69148121D01*
X155425841Y-69194614D01*
X155373499Y-69206000D01*
X153597615Y-69206000D01*
X153582376Y-69210475D01*
X153581171Y-69211865D01*
X153579500Y-69219548D01*
X153579500Y-71553884D01*
X153583975Y-71569123D01*
X153585365Y-71570328D01*
X153593048Y-71571999D01*
X155373499Y-71571999D01*
X155441620Y-71592001D01*
X155488113Y-71645657D01*
X155499499Y-71697999D01*
X155499499Y-82988000D01*
X155479497Y-83056121D01*
X155425841Y-83102614D01*
X155373499Y-83114000D01*
X153597615Y-83114000D01*
X153582376Y-83118475D01*
X153581171Y-83119865D01*
X153579500Y-83127548D01*
X153579500Y-85461884D01*
X153583975Y-85477123D01*
X153585365Y-85478328D01*
X153593048Y-85479999D01*
X155373499Y-85479999D01*
X155441620Y-85500001D01*
X155488113Y-85553657D01*
X155499499Y-85605999D01*
X155499499Y-85761066D01*
X155479497Y-85829187D01*
X155425841Y-85875680D01*
X155366033Y-85886654D01*
X155364861Y-85886500D01*
X153526840Y-85886500D01*
X151686140Y-85886501D01*
X151682056Y-85887039D01*
X151682050Y-85887039D01*
X151576925Y-85900878D01*
X151576923Y-85900878D01*
X151568738Y-85901956D01*
X151422659Y-85962464D01*
X151377255Y-85997304D01*
X151329347Y-86034065D01*
X151297218Y-86058718D01*
X151200964Y-86184159D01*
X151162505Y-86277007D01*
X151159595Y-86284033D01*
X151115047Y-86339314D01*
X151043186Y-86361815D01*
X150555769Y-86361815D01*
X150487648Y-86341813D01*
X150457573Y-86314768D01*
X150447430Y-86302153D01*
X150443159Y-86296841D01*
X150435001Y-86290282D01*
X150308694Y-86188728D01*
X150308693Y-86188727D01*
X150303378Y-86184454D01*
X150279317Y-86172510D01*
X150148836Y-86107738D01*
X150148832Y-86107736D01*
X150142725Y-86104705D01*
X149968694Y-86061315D01*
X149947922Y-86059899D01*
X149929551Y-86058646D01*
X149929540Y-86058646D01*
X149927404Y-86058500D01*
X149284596Y-86058500D01*
X149282460Y-86058646D01*
X149282449Y-86058646D01*
X149264078Y-86059899D01*
X149243306Y-86061315D01*
X149069275Y-86104705D01*
X149063168Y-86107736D01*
X149063164Y-86107738D01*
X148932683Y-86172510D01*
X148908622Y-86184454D01*
X148903306Y-86188728D01*
X148903300Y-86188732D01*
X148780444Y-86287511D01*
X148714822Y-86314608D01*
X148701492Y-86315315D01*
X147905314Y-86315315D01*
X147837193Y-86295313D01*
X147788906Y-86237536D01*
X147785697Y-86229790D01*
X147785697Y-86229789D01*
X147782536Y-86222159D01*
X147686282Y-86096718D01*
X147669278Y-86083670D01*
X147630213Y-86053695D01*
X147560841Y-86000464D01*
X147414762Y-85939956D01*
X147406574Y-85938878D01*
X147301448Y-85925038D01*
X147301447Y-85925038D01*
X147297361Y-85924500D01*
X146558090Y-85924500D01*
X145818640Y-85924501D01*
X145814556Y-85925039D01*
X145814550Y-85925039D01*
X145709425Y-85938878D01*
X145709423Y-85938878D01*
X145701238Y-85939956D01*
X145555159Y-86000464D01*
X145485787Y-86053695D01*
X145446723Y-86083670D01*
X145429718Y-86096718D01*
X145333464Y-86222159D01*
X145313087Y-86271354D01*
X145302450Y-86297033D01*
X145257901Y-86352314D01*
X145186041Y-86374815D01*
X144725317Y-86374815D01*
X144657196Y-86354813D01*
X144626845Y-86327423D01*
X144595606Y-86288290D01*
X144591213Y-86282787D01*
X144583973Y-86277007D01*
X144464233Y-86181421D01*
X144447571Y-86168120D01*
X144282095Y-86088125D01*
X144165967Y-86061315D01*
X144108207Y-86047980D01*
X144108204Y-86047980D01*
X144103008Y-86046780D01*
X144098152Y-86046500D01*
X143480848Y-86046500D01*
X143475992Y-86046780D01*
X143470796Y-86047980D01*
X143470793Y-86047980D01*
X143413033Y-86061315D01*
X143296905Y-86088125D01*
X143131429Y-86168120D01*
X143080609Y-86208689D01*
X143014892Y-86235557D01*
X142945083Y-86222630D01*
X142923391Y-86208689D01*
X142872571Y-86168120D01*
X142707095Y-86088125D01*
X142590967Y-86061315D01*
X142533207Y-86047980D01*
X142533204Y-86047980D01*
X142528008Y-86046780D01*
X142523152Y-86046500D01*
X141905848Y-86046500D01*
X141900992Y-86046780D01*
X141895796Y-86047980D01*
X141895793Y-86047980D01*
X141838033Y-86061315D01*
X141721905Y-86088125D01*
X141556429Y-86168120D01*
X141550929Y-86172510D01*
X141550925Y-86172513D01*
X141429608Y-86269359D01*
X141363892Y-86296226D01*
X141294082Y-86283298D01*
X141272392Y-86269359D01*
X141151075Y-86172513D01*
X141151071Y-86172510D01*
X141145571Y-86168120D01*
X140980095Y-86088125D01*
X140863967Y-86061315D01*
X140806207Y-86047980D01*
X140806204Y-86047980D01*
X140801008Y-86046780D01*
X140796152Y-86046500D01*
X140178848Y-86046500D01*
X140173992Y-86046780D01*
X140168796Y-86047980D01*
X140168793Y-86047980D01*
X140111033Y-86061315D01*
X139994905Y-86088125D01*
X139829429Y-86168120D01*
X139778609Y-86208689D01*
X139712892Y-86235557D01*
X139643083Y-86222630D01*
X139621391Y-86208689D01*
X139570571Y-86168120D01*
X139405095Y-86088125D01*
X139288967Y-86061315D01*
X139231207Y-86047980D01*
X139231204Y-86047980D01*
X139226008Y-86046780D01*
X139221152Y-86046500D01*
X138603848Y-86046500D01*
X138598992Y-86046780D01*
X138593796Y-86047980D01*
X138593793Y-86047980D01*
X138536033Y-86061315D01*
X138419905Y-86088125D01*
X138254429Y-86168120D01*
X138118026Y-86277008D01*
X138052312Y-86303874D01*
X137982502Y-86290947D01*
X137950325Y-86267630D01*
X137891936Y-86209241D01*
X137857910Y-86146929D01*
X137855768Y-86106539D01*
X137857515Y-86090456D01*
X137857515Y-86090454D01*
X137858252Y-86083670D01*
X137838881Y-85905360D01*
X137781674Y-85735370D01*
X137706735Y-85610651D01*
X137692161Y-85586396D01*
X137692159Y-85586394D01*
X137689297Y-85581630D01*
X137662091Y-85550443D01*
X137207557Y-85095909D01*
X137176370Y-85068703D01*
X137089772Y-85016669D01*
X150717501Y-85016669D01*
X150717871Y-85023490D01*
X150723395Y-85074352D01*
X150727021Y-85089604D01*
X150772176Y-85210054D01*
X150780714Y-85225649D01*
X150857215Y-85327724D01*
X150869776Y-85340285D01*
X150971851Y-85416786D01*
X150987446Y-85425324D01*
X151107894Y-85470478D01*
X151123149Y-85474105D01*
X151174014Y-85479631D01*
X151180828Y-85480000D01*
X153053385Y-85480000D01*
X153068624Y-85475525D01*
X153069829Y-85474135D01*
X153071500Y-85466452D01*
X153071500Y-84569115D01*
X153067025Y-84553876D01*
X153065635Y-84552671D01*
X153057952Y-84551000D01*
X150735616Y-84551000D01*
X150720377Y-84555475D01*
X150719172Y-84556865D01*
X150717501Y-84564548D01*
X150717501Y-85016669D01*
X137089772Y-85016669D01*
X137022630Y-84976326D01*
X137016168Y-84974151D01*
X137016165Y-84974150D01*
X136935237Y-84946916D01*
X136852640Y-84919119D01*
X136674330Y-84899748D01*
X136667546Y-84900485D01*
X136667544Y-84900485D01*
X136651461Y-84902232D01*
X136581578Y-84889703D01*
X136548759Y-84866064D01*
X136136611Y-84453916D01*
X136102585Y-84391604D01*
X136107784Y-84332953D01*
X136104100Y-84331966D01*
X136106238Y-84323988D01*
X136109398Y-84316358D01*
X136130036Y-84159596D01*
X136112301Y-84024885D01*
X150717500Y-84024885D01*
X150721975Y-84040124D01*
X150723365Y-84041329D01*
X150731048Y-84043000D01*
X153053385Y-84043000D01*
X153068624Y-84038525D01*
X153069829Y-84037135D01*
X153071500Y-84029452D01*
X153071500Y-83132116D01*
X153067025Y-83116877D01*
X153065635Y-83115672D01*
X153057952Y-83114001D01*
X151180831Y-83114001D01*
X151174010Y-83114371D01*
X151123148Y-83119895D01*
X151107896Y-83123521D01*
X150987446Y-83168676D01*
X150971851Y-83177214D01*
X150869776Y-83253715D01*
X150857215Y-83266276D01*
X150780714Y-83368351D01*
X150772176Y-83383946D01*
X150727022Y-83504394D01*
X150723395Y-83519649D01*
X150717869Y-83570514D01*
X150717500Y-83577328D01*
X150717500Y-84024885D01*
X136112301Y-84024885D01*
X136109398Y-84002834D01*
X136048890Y-83856755D01*
X135976804Y-83762811D01*
X134931189Y-82717198D01*
X134927916Y-82714686D01*
X134927912Y-82714683D01*
X134890170Y-82685722D01*
X134837245Y-82645110D01*
X134691166Y-82584602D01*
X134534404Y-82563964D01*
X134526216Y-82565042D01*
X134385828Y-82583524D01*
X134385826Y-82583525D01*
X134377642Y-82584602D01*
X134370014Y-82587762D01*
X134370013Y-82587762D01*
X134320817Y-82608139D01*
X134250227Y-82615728D01*
X134183504Y-82580825D01*
X133826910Y-82224231D01*
X133792884Y-82161919D01*
X133790790Y-82121090D01*
X133796372Y-82071328D01*
X133797157Y-82064330D01*
X133796282Y-82056530D01*
X133793046Y-82027681D01*
X133805330Y-81957755D01*
X133829166Y-81924540D01*
X134717353Y-81036353D01*
X134731766Y-81023966D01*
X134735136Y-81021486D01*
X134748158Y-81011903D01*
X134780744Y-80973547D01*
X134787674Y-80966032D01*
X134792961Y-80960745D01*
X134809776Y-80939492D01*
X134812545Y-80936115D01*
X134852955Y-80888550D01*
X134852956Y-80888549D01*
X134857692Y-80882974D01*
X134861019Y-80876457D01*
X134864050Y-80871913D01*
X134866923Y-80867260D01*
X134871466Y-80861519D01*
X134901005Y-80798317D01*
X134902911Y-80794417D01*
X134931300Y-80738821D01*
X134931301Y-80738819D01*
X134934627Y-80732305D01*
X134936366Y-80725198D01*
X134938265Y-80720092D01*
X134939995Y-80714891D01*
X134943096Y-80708256D01*
X134957298Y-80639977D01*
X134958268Y-80635693D01*
X134973503Y-80573431D01*
X134974838Y-80567977D01*
X134975500Y-80557306D01*
X134975519Y-80557307D01*
X134975793Y-80552750D01*
X134976057Y-80549786D01*
X134977547Y-80542625D01*
X134975546Y-80468675D01*
X134975500Y-80465267D01*
X134975500Y-79220352D01*
X134995502Y-79152231D01*
X135022891Y-79121881D01*
X135089117Y-79069013D01*
X135094620Y-79064620D01*
X135206664Y-78924266D01*
X135284827Y-78762577D01*
X135298004Y-78705500D01*
X135324026Y-78592788D01*
X135324026Y-78592785D01*
X135325226Y-78587589D01*
X135325500Y-78582837D01*
X135325499Y-78007164D01*
X135325226Y-78002411D01*
X135284827Y-77827423D01*
X135206664Y-77665734D01*
X135202267Y-77660226D01*
X135113164Y-77548609D01*
X135086296Y-77482892D01*
X135099223Y-77413083D01*
X135113164Y-77391391D01*
X135202267Y-77279774D01*
X135206664Y-77274266D01*
X135284827Y-77112577D01*
X135325226Y-76937589D01*
X135325500Y-76932837D01*
X135325499Y-76357164D01*
X135325226Y-76352411D01*
X135284827Y-76177423D01*
X135206664Y-76015734D01*
X135094620Y-75875380D01*
X135076182Y-75860661D01*
X135044576Y-75835430D01*
X135003817Y-75777299D01*
X134997185Y-75736959D01*
X134997185Y-74817212D01*
X134998618Y-74798261D01*
X135000714Y-74784486D01*
X135000714Y-74784484D01*
X135001814Y-74777254D01*
X134997600Y-74725445D01*
X134997185Y-74715230D01*
X134997185Y-74707368D01*
X134993948Y-74679604D01*
X134993517Y-74675245D01*
X134988283Y-74610893D01*
X134988282Y-74610890D01*
X134987689Y-74603595D01*
X134985432Y-74596629D01*
X134984287Y-74590897D01*
X134982943Y-74585211D01*
X134982095Y-74577940D01*
X134957557Y-74510339D01*
X134956142Y-74506216D01*
X134952299Y-74494351D01*
X134933993Y-74437844D01*
X134930196Y-74431586D01*
X134927756Y-74426257D01*
X134925144Y-74421040D01*
X134922647Y-74414163D01*
X134883229Y-74354041D01*
X134880895Y-74350342D01*
X134843606Y-74288890D01*
X134836325Y-74280646D01*
X134836347Y-74280627D01*
X134833557Y-74277479D01*
X134831131Y-74274577D01*
X134827117Y-74268455D01*
X134771720Y-74215977D01*
X134769279Y-74213600D01*
X133828760Y-73273081D01*
X133794734Y-73210769D01*
X133792640Y-73169941D01*
X133796372Y-73136669D01*
X133796372Y-73136668D01*
X133797157Y-73129670D01*
X133796372Y-73122672D01*
X133790790Y-73072910D01*
X133803074Y-73002984D01*
X133826910Y-72969769D01*
X134389940Y-72406739D01*
X134452252Y-72372713D01*
X134495480Y-72370912D01*
X134526214Y-72374958D01*
X134526215Y-72374958D01*
X134534404Y-72376036D01*
X134542592Y-72374958D01*
X134682978Y-72356476D01*
X134691166Y-72355398D01*
X134837245Y-72294890D01*
X134931189Y-72222804D01*
X135976802Y-71177189D01*
X136029381Y-71108669D01*
X150717501Y-71108669D01*
X150717871Y-71115490D01*
X150723395Y-71166352D01*
X150727021Y-71181604D01*
X150772176Y-71302054D01*
X150780714Y-71317649D01*
X150857215Y-71419724D01*
X150869776Y-71432285D01*
X150971851Y-71508786D01*
X150987446Y-71517324D01*
X151107894Y-71562478D01*
X151123149Y-71566105D01*
X151174014Y-71571631D01*
X151180828Y-71572000D01*
X153053385Y-71572000D01*
X153068624Y-71567525D01*
X153069829Y-71566135D01*
X153071500Y-71558452D01*
X153071500Y-70661115D01*
X153067025Y-70645876D01*
X153065635Y-70644671D01*
X153057952Y-70643000D01*
X150735616Y-70643000D01*
X150720377Y-70647475D01*
X150719172Y-70648865D01*
X150717501Y-70656548D01*
X150717501Y-71108669D01*
X136029381Y-71108669D01*
X136048890Y-71083245D01*
X136109398Y-70937166D01*
X136129570Y-70783947D01*
X136158291Y-70719021D01*
X136165396Y-70711299D01*
X136759810Y-70116885D01*
X150717500Y-70116885D01*
X150721975Y-70132124D01*
X150723365Y-70133329D01*
X150731048Y-70135000D01*
X153053385Y-70135000D01*
X153068624Y-70130525D01*
X153069829Y-70129135D01*
X153071500Y-70121452D01*
X153071500Y-69224116D01*
X153067025Y-69208877D01*
X153065635Y-69207672D01*
X153057952Y-69206001D01*
X151180831Y-69206001D01*
X151174010Y-69206371D01*
X151123148Y-69211895D01*
X151107896Y-69215521D01*
X150987446Y-69260676D01*
X150971851Y-69269214D01*
X150869776Y-69345715D01*
X150857215Y-69358276D01*
X150780714Y-69460351D01*
X150772176Y-69475946D01*
X150727022Y-69596394D01*
X150723395Y-69611649D01*
X150717869Y-69662514D01*
X150717500Y-69669328D01*
X150717500Y-70116885D01*
X136759810Y-70116885D01*
X137056759Y-69819936D01*
X137119071Y-69785910D01*
X137159461Y-69783768D01*
X137175544Y-69785515D01*
X137175546Y-69785515D01*
X137182330Y-69786252D01*
X137360640Y-69766881D01*
X137443237Y-69739084D01*
X137524165Y-69711850D01*
X137524168Y-69711849D01*
X137530630Y-69709674D01*
X137684370Y-69617297D01*
X137715557Y-69590091D01*
X138170091Y-69135557D01*
X138197297Y-69104370D01*
X138289674Y-68950630D01*
X138346881Y-68780640D01*
X138366252Y-68602330D01*
X138364835Y-68589282D01*
X138363768Y-68579461D01*
X138376297Y-68509578D01*
X138399936Y-68476759D01*
X138458325Y-68418370D01*
X138520637Y-68384344D01*
X138591452Y-68389409D01*
X138626024Y-68408990D01*
X138762429Y-68517880D01*
X138927905Y-68597875D01*
X138973512Y-68608404D01*
X139101793Y-68638020D01*
X139101796Y-68638020D01*
X139106992Y-68639220D01*
X139111848Y-68639500D01*
X139729152Y-68639500D01*
X139734008Y-68639220D01*
X139739204Y-68638020D01*
X139739207Y-68638020D01*
X139867488Y-68608404D01*
X139913095Y-68597875D01*
X140078571Y-68517880D01*
X140129392Y-68477311D01*
X140195108Y-68450443D01*
X140264917Y-68463370D01*
X140286607Y-68477310D01*
X140337429Y-68517880D01*
X140502905Y-68597875D01*
X140548512Y-68608404D01*
X140676793Y-68638020D01*
X140676796Y-68638020D01*
X140681992Y-68639220D01*
X140686848Y-68639500D01*
X141304152Y-68639500D01*
X141309008Y-68639220D01*
X141314204Y-68638020D01*
X141314207Y-68638020D01*
X141442488Y-68608404D01*
X141488095Y-68597875D01*
X141653571Y-68517880D01*
X141659071Y-68513490D01*
X141659075Y-68513487D01*
X141780392Y-68416641D01*
X141846108Y-68389774D01*
X141915918Y-68402702D01*
X141937608Y-68416641D01*
X142058925Y-68513487D01*
X142058929Y-68513490D01*
X142064429Y-68517880D01*
X142229905Y-68597875D01*
X142275512Y-68608404D01*
X142403793Y-68638020D01*
X142403796Y-68638020D01*
X142408992Y-68639220D01*
X142413848Y-68639500D01*
X143031152Y-68639500D01*
X143036008Y-68639220D01*
X143041204Y-68638020D01*
X143041207Y-68638020D01*
X143169488Y-68608404D01*
X143215095Y-68597875D01*
X143380571Y-68517880D01*
X143431392Y-68477311D01*
X143497108Y-68450443D01*
X143566917Y-68463370D01*
X143588607Y-68477310D01*
X143639429Y-68517880D01*
X143804905Y-68597875D01*
X143850512Y-68608404D01*
X143978793Y-68638020D01*
X143978796Y-68638020D01*
X143983992Y-68639220D01*
X143988848Y-68639500D01*
X144606152Y-68639500D01*
X144611008Y-68639220D01*
X144616204Y-68638020D01*
X144616207Y-68638020D01*
X144744488Y-68608404D01*
X144790095Y-68597875D01*
X144955571Y-68517880D01*
X145090339Y-68410297D01*
X145093710Y-68407606D01*
X145099213Y-68403213D01*
X145110233Y-68389409D01*
X145134845Y-68358577D01*
X145192976Y-68317818D01*
X145233317Y-68311185D01*
X145694041Y-68311185D01*
X145762162Y-68331187D01*
G37*
G04 #@! TD.AperFunction*
G04 #@! TA.AperFunction,Conductor*
G36*
X132826902Y-74392939D02*
G01*
X132858048Y-74415727D01*
X133465910Y-75023589D01*
X133499936Y-75085901D01*
X133502815Y-75112684D01*
X133502815Y-75736959D01*
X133482813Y-75805080D01*
X133455424Y-75835430D01*
X133423818Y-75860661D01*
X133405380Y-75875380D01*
X133293336Y-76015734D01*
X133215173Y-76177423D01*
X133213589Y-76184284D01*
X133183298Y-76315491D01*
X133174774Y-76352411D01*
X133174500Y-76357163D01*
X133174501Y-76932836D01*
X133174774Y-76937589D01*
X133215173Y-77112577D01*
X133293336Y-77274266D01*
X133297733Y-77279774D01*
X133386836Y-77391391D01*
X133413704Y-77457108D01*
X133400777Y-77526917D01*
X133386836Y-77548609D01*
X133297733Y-77660226D01*
X133293336Y-77665734D01*
X133215173Y-77827423D01*
X133174774Y-78002411D01*
X133174500Y-78007163D01*
X133174501Y-78582836D01*
X133174774Y-78587589D01*
X133215173Y-78762577D01*
X133293336Y-78924266D01*
X133405380Y-79064620D01*
X133410883Y-79069013D01*
X133477109Y-79121881D01*
X133517868Y-79180012D01*
X133524500Y-79220352D01*
X133524500Y-80124992D01*
X133504498Y-80193113D01*
X133487595Y-80214087D01*
X132873834Y-80827848D01*
X132811522Y-80861874D01*
X132740707Y-80856809D01*
X132683871Y-80814262D01*
X132663133Y-80769399D01*
X132662974Y-80767984D01*
X132650550Y-80732305D01*
X132604845Y-80601057D01*
X132604844Y-80601055D01*
X132602530Y-80594410D01*
X132585474Y-80567115D01*
X132507962Y-80443069D01*
X132507958Y-80443064D01*
X132505132Y-80438541D01*
X132501896Y-80434910D01*
X132065396Y-79998410D01*
X132061765Y-79995174D01*
X132057242Y-79992348D01*
X132057237Y-79992344D01*
X131911867Y-79901507D01*
X131911866Y-79901507D01*
X131905896Y-79897776D01*
X131899251Y-79895462D01*
X131899249Y-79895461D01*
X131767080Y-79849436D01*
X131732322Y-79837332D01*
X131675643Y-79830974D01*
X131614998Y-79824171D01*
X131549531Y-79796699D01*
X131509310Y-79738195D01*
X131503829Y-79713002D01*
X131491453Y-79602676D01*
X131490668Y-79595678D01*
X131430224Y-79422104D01*
X131426493Y-79416133D01*
X131335656Y-79270763D01*
X131335652Y-79270758D01*
X131332826Y-79266235D01*
X131329590Y-79262604D01*
X130893090Y-78826104D01*
X130889459Y-78822868D01*
X130884936Y-78820042D01*
X130884931Y-78820038D01*
X130739561Y-78729201D01*
X130739560Y-78729201D01*
X130733590Y-78725470D01*
X130726945Y-78723156D01*
X130726943Y-78723155D01*
X130631859Y-78690044D01*
X130560016Y-78665026D01*
X130495391Y-78657777D01*
X130429926Y-78630306D01*
X130389704Y-78571802D01*
X130384223Y-78546608D01*
X130382737Y-78533354D01*
X130376974Y-78481984D01*
X130348498Y-78400211D01*
X130318845Y-78315057D01*
X130318844Y-78315055D01*
X130316530Y-78308410D01*
X130296706Y-78276685D01*
X130221962Y-78157069D01*
X130221958Y-78157064D01*
X130219132Y-78152541D01*
X130215896Y-78148910D01*
X129779396Y-77712410D01*
X129775765Y-77709174D01*
X129767251Y-77703854D01*
X129720082Y-77650794D01*
X129709086Y-77580654D01*
X129737756Y-77515704D01*
X129767250Y-77490147D01*
X129775765Y-77484826D01*
X129779396Y-77481590D01*
X130215896Y-77045090D01*
X130219132Y-77041459D01*
X130221958Y-77036936D01*
X130221962Y-77036931D01*
X130312799Y-76891561D01*
X130312799Y-76891560D01*
X130316530Y-76885590D01*
X130376974Y-76712016D01*
X130384223Y-76647391D01*
X130411694Y-76581926D01*
X130470198Y-76541704D01*
X130495389Y-76536224D01*
X130560016Y-76528974D01*
X130640417Y-76500976D01*
X130726943Y-76470845D01*
X130726945Y-76470844D01*
X130733590Y-76468530D01*
X130740668Y-76464107D01*
X130884931Y-76373962D01*
X130884936Y-76373958D01*
X130889459Y-76371132D01*
X130893090Y-76367896D01*
X131329590Y-75931396D01*
X131332826Y-75927765D01*
X131335652Y-75923242D01*
X131335656Y-75923237D01*
X131426493Y-75777867D01*
X131426493Y-75777866D01*
X131430224Y-75771896D01*
X131490668Y-75598322D01*
X131494385Y-75565190D01*
X131503829Y-75480998D01*
X131531301Y-75415531D01*
X131589805Y-75375310D01*
X131614998Y-75369829D01*
X131725324Y-75357453D01*
X131732322Y-75356668D01*
X131866124Y-75310074D01*
X131899249Y-75298539D01*
X131899251Y-75298538D01*
X131905896Y-75296224D01*
X131911867Y-75292493D01*
X132057237Y-75201656D01*
X132057242Y-75201652D01*
X132061765Y-75198826D01*
X132065396Y-75195590D01*
X132501896Y-74759090D01*
X132505132Y-74755459D01*
X132507958Y-74750936D01*
X132507962Y-74750931D01*
X132598799Y-74605561D01*
X132598799Y-74605560D01*
X132602530Y-74599590D01*
X132605507Y-74591043D01*
X132649961Y-74463385D01*
X132691253Y-74405631D01*
X132757214Y-74379370D01*
X132826902Y-74392939D01*
G37*
G04 #@! TD.AperFunction*
G04 #@! TA.AperFunction,Conductor*
G36*
X151002747Y-52500620D02*
G01*
X151194211Y-52508980D01*
X151194424Y-52508989D01*
X151392780Y-52518159D01*
X151403406Y-52519103D01*
X151600936Y-52545108D01*
X151601846Y-52545231D01*
X151793539Y-52571971D01*
X151803396Y-52573749D01*
X151998804Y-52617070D01*
X152000380Y-52617430D01*
X152066709Y-52633030D01*
X152187815Y-52661514D01*
X152196827Y-52663991D01*
X152388135Y-52724310D01*
X152390243Y-52724996D01*
X152451557Y-52745546D01*
X152572400Y-52786049D01*
X152580576Y-52789108D01*
X152766106Y-52865957D01*
X152768782Y-52867102D01*
X152944261Y-52944583D01*
X152951547Y-52948084D01*
X153129766Y-53040859D01*
X153132874Y-53042532D01*
X153300403Y-53135845D01*
X153306746Y-53139629D01*
X153476259Y-53247620D01*
X153479766Y-53249937D01*
X153637873Y-53358242D01*
X153637874Y-53358243D01*
X153643371Y-53362231D01*
X153802833Y-53484591D01*
X153806624Y-53487617D01*
X153954046Y-53610035D01*
X153958675Y-53614074D01*
X154106871Y-53749870D01*
X154110842Y-53753672D01*
X154246328Y-53889158D01*
X154250130Y-53893129D01*
X154385926Y-54041325D01*
X154389965Y-54045954D01*
X154512383Y-54193376D01*
X154515409Y-54197167D01*
X154637769Y-54356629D01*
X154641757Y-54362126D01*
X154750063Y-54520234D01*
X154752380Y-54523741D01*
X154860365Y-54693243D01*
X154864155Y-54699597D01*
X154957468Y-54867126D01*
X154959141Y-54870234D01*
X155051916Y-55048453D01*
X155055417Y-55055739D01*
X155132898Y-55231218D01*
X155134043Y-55233894D01*
X155210892Y-55419424D01*
X155213951Y-55427600D01*
X155274975Y-55609668D01*
X155274997Y-55609735D01*
X155275690Y-55611865D01*
X155336008Y-55803171D01*
X155338486Y-55812185D01*
X155350666Y-55863972D01*
X155382570Y-55999620D01*
X155382930Y-56001196D01*
X155426251Y-56196604D01*
X155428030Y-56206467D01*
X155454762Y-56398102D01*
X155454892Y-56399064D01*
X155480897Y-56596594D01*
X155481841Y-56607221D01*
X155491009Y-56805522D01*
X155491023Y-56805845D01*
X155499380Y-56997253D01*
X155499500Y-57002749D01*
X155499500Y-63430000D01*
X155479498Y-63498121D01*
X155425842Y-63544614D01*
X155373500Y-63556000D01*
X153597615Y-63556000D01*
X153582376Y-63560475D01*
X153581171Y-63561865D01*
X153579500Y-63569548D01*
X153579500Y-65903884D01*
X153583975Y-65919123D01*
X153585365Y-65920328D01*
X153593048Y-65921999D01*
X155373500Y-65921999D01*
X155441621Y-65942001D01*
X155488114Y-65995657D01*
X155499500Y-66047999D01*
X155499500Y-66203066D01*
X155479498Y-66271187D01*
X155425842Y-66317680D01*
X155366034Y-66328654D01*
X155364861Y-66328500D01*
X153527063Y-66328500D01*
X151686140Y-66328501D01*
X151682056Y-66329039D01*
X151682050Y-66329039D01*
X151576925Y-66342878D01*
X151576923Y-66342878D01*
X151568738Y-66343956D01*
X151422659Y-66404464D01*
X151416108Y-66409491D01*
X151317051Y-66485500D01*
X151297218Y-66500718D01*
X151200964Y-66626159D01*
X151165673Y-66711359D01*
X151148825Y-66752033D01*
X151104276Y-66807314D01*
X151032416Y-66829815D01*
X150840608Y-66829815D01*
X150772487Y-66809813D01*
X150725994Y-66756157D01*
X150715890Y-66685883D01*
X150733348Y-66637699D01*
X150775004Y-66570120D01*
X150781151Y-66556939D01*
X150830491Y-66408186D01*
X150833358Y-66394810D01*
X150842672Y-66303903D01*
X150842929Y-66298874D01*
X150838525Y-66283876D01*
X150837135Y-66282671D01*
X150829452Y-66281000D01*
X148895115Y-66281000D01*
X148879876Y-66285475D01*
X148878671Y-66286865D01*
X148877000Y-66294548D01*
X148877000Y-66297438D01*
X148877337Y-66303953D01*
X148886894Y-66396057D01*
X148889788Y-66409456D01*
X148939381Y-66558107D01*
X148945555Y-66571286D01*
X148999949Y-66659186D01*
X149018787Y-66727638D01*
X148997626Y-66795408D01*
X148991010Y-66804431D01*
X148971040Y-66829268D01*
X148912770Y-66869822D01*
X148872845Y-66876315D01*
X148413314Y-66876315D01*
X148345193Y-66856313D01*
X148296906Y-66798536D01*
X148293697Y-66790790D01*
X148293697Y-66790789D01*
X148290536Y-66783159D01*
X148194282Y-66657718D01*
X148181838Y-66648169D01*
X148086402Y-66574939D01*
X148068841Y-66561464D01*
X147922762Y-66500956D01*
X147896268Y-66497468D01*
X147809448Y-66486038D01*
X147809447Y-66486038D01*
X147805361Y-66485500D01*
X147066090Y-66485500D01*
X146326640Y-66485501D01*
X146322556Y-66486039D01*
X146322550Y-66486039D01*
X146217425Y-66499878D01*
X146217423Y-66499878D01*
X146209238Y-66500956D01*
X146063159Y-66561464D01*
X146045598Y-66574939D01*
X145950163Y-66648169D01*
X145937718Y-66657718D01*
X145932695Y-66664264D01*
X145853465Y-66767519D01*
X145796127Y-66809386D01*
X145753502Y-66816815D01*
X145233317Y-66816815D01*
X145165196Y-66796813D01*
X145134845Y-66769423D01*
X145103606Y-66730290D01*
X145099213Y-66724787D01*
X144955571Y-66610120D01*
X144790095Y-66530125D01*
X144691072Y-66507264D01*
X144616207Y-66489980D01*
X144616204Y-66489980D01*
X144611008Y-66488780D01*
X144606152Y-66488500D01*
X143988848Y-66488500D01*
X143983992Y-66488780D01*
X143978796Y-66489980D01*
X143978793Y-66489980D01*
X143903928Y-66507264D01*
X143804905Y-66530125D01*
X143639429Y-66610120D01*
X143588609Y-66650689D01*
X143522892Y-66677557D01*
X143453083Y-66664630D01*
X143431391Y-66650689D01*
X143380571Y-66610120D01*
X143215095Y-66530125D01*
X143116072Y-66507264D01*
X143041207Y-66489980D01*
X143041204Y-66489980D01*
X143036008Y-66488780D01*
X143031152Y-66488500D01*
X142413848Y-66488500D01*
X142408992Y-66488780D01*
X142403796Y-66489980D01*
X142403793Y-66489980D01*
X142328928Y-66507264D01*
X142229905Y-66530125D01*
X142064429Y-66610120D01*
X142058929Y-66614510D01*
X142058925Y-66614513D01*
X141937608Y-66711359D01*
X141871892Y-66738226D01*
X141802082Y-66725298D01*
X141780392Y-66711359D01*
X141659075Y-66614513D01*
X141659071Y-66614510D01*
X141653571Y-66610120D01*
X141488095Y-66530125D01*
X141389072Y-66507264D01*
X141314207Y-66489980D01*
X141314204Y-66489980D01*
X141309008Y-66488780D01*
X141304152Y-66488500D01*
X140686848Y-66488500D01*
X140681992Y-66488780D01*
X140676796Y-66489980D01*
X140676793Y-66489980D01*
X140601928Y-66507264D01*
X140502905Y-66530125D01*
X140337429Y-66610120D01*
X140286609Y-66650689D01*
X140220892Y-66677557D01*
X140151083Y-66664630D01*
X140129391Y-66650689D01*
X140078571Y-66610120D01*
X139913095Y-66530125D01*
X139814072Y-66507264D01*
X139739207Y-66489980D01*
X139739204Y-66489980D01*
X139734008Y-66488780D01*
X139729152Y-66488500D01*
X139111848Y-66488500D01*
X139106992Y-66488780D01*
X139101796Y-66489980D01*
X139101793Y-66489980D01*
X139026928Y-66507264D01*
X138927905Y-66530125D01*
X138762429Y-66610120D01*
X138618787Y-66724787D01*
X138614394Y-66730290D01*
X138583155Y-66769423D01*
X138525024Y-66810182D01*
X138484683Y-66816815D01*
X138322228Y-66816815D01*
X138303280Y-66815382D01*
X138296195Y-66814304D01*
X138289502Y-66813286D01*
X138289500Y-66813286D01*
X138282270Y-66812186D01*
X138274978Y-66812779D01*
X138274975Y-66812779D01*
X138230461Y-66816400D01*
X138220246Y-66816815D01*
X138212384Y-66816815D01*
X138184620Y-66820052D01*
X138180272Y-66820482D01*
X138158499Y-66822253D01*
X138115909Y-66825717D01*
X138115906Y-66825718D01*
X138108611Y-66826311D01*
X138101645Y-66828568D01*
X138095913Y-66829713D01*
X138090227Y-66831057D01*
X138082956Y-66831905D01*
X138015355Y-66856443D01*
X138011251Y-66857851D01*
X137978995Y-66868301D01*
X137949826Y-66877750D01*
X137949823Y-66877751D01*
X137942860Y-66880007D01*
X137936602Y-66883804D01*
X137931273Y-66886244D01*
X137926056Y-66888856D01*
X137919179Y-66891353D01*
X137913060Y-66895365D01*
X137859057Y-66930771D01*
X137855358Y-66933105D01*
X137793906Y-66970394D01*
X137785662Y-66977675D01*
X137785643Y-66977653D01*
X137782495Y-66980443D01*
X137779593Y-66982869D01*
X137773471Y-66986883D01*
X137768438Y-66992196D01*
X137720994Y-67042279D01*
X137718616Y-67044721D01*
X137365062Y-67398275D01*
X137302750Y-67432301D01*
X137231935Y-67427236D01*
X137175099Y-67384689D01*
X137153372Y-67338273D01*
X137135042Y-67261030D01*
X137130068Y-67247364D01*
X137059771Y-67107291D01*
X137052341Y-67095805D01*
X136994646Y-67024937D01*
X136991273Y-67021202D01*
X136977551Y-67013709D01*
X136975718Y-67013840D01*
X136969103Y-67018091D01*
X135601323Y-68385871D01*
X135593709Y-68399815D01*
X135593840Y-68401648D01*
X135598091Y-68408263D01*
X135600125Y-68410297D01*
X135604987Y-68414681D01*
X135676866Y-68473045D01*
X135688385Y-68480473D01*
X135828564Y-68550516D01*
X135842246Y-68555470D01*
X135918059Y-68573321D01*
X135979782Y-68608404D01*
X136012739Y-68671287D01*
X136006468Y-68742006D01*
X135978275Y-68785062D01*
X135258668Y-69504669D01*
X135196356Y-69538695D01*
X135125541Y-69533630D01*
X135092872Y-69515539D01*
X135067055Y-69495728D01*
X134920976Y-69435220D01*
X134764214Y-69414582D01*
X134607452Y-69435220D01*
X134461373Y-69495728D01*
X134367429Y-69567814D01*
X133321816Y-70613429D01*
X133249728Y-70707373D01*
X133189220Y-70853452D01*
X133168582Y-71010214D01*
X133189220Y-71166976D01*
X133192380Y-71174605D01*
X133249728Y-71313055D01*
X133248393Y-71313608D01*
X133263035Y-71373939D01*
X133239820Y-71441033D01*
X133226272Y-71457049D01*
X132770231Y-71913090D01*
X132707919Y-71947116D01*
X132667090Y-71949210D01*
X132617328Y-71943628D01*
X132610330Y-71942843D01*
X132427678Y-71963332D01*
X132347277Y-71991330D01*
X132260751Y-72021461D01*
X132260749Y-72021462D01*
X132254104Y-72023776D01*
X132248134Y-72027507D01*
X132248133Y-72027507D01*
X132102763Y-72118344D01*
X132102758Y-72118348D01*
X132098235Y-72121174D01*
X132094604Y-72124410D01*
X131658104Y-72560910D01*
X131654868Y-72564541D01*
X131652042Y-72569064D01*
X131652038Y-72569069D01*
X131561201Y-72714439D01*
X131557470Y-72720410D01*
X131497026Y-72893984D01*
X131490887Y-72948715D01*
X131489777Y-72958608D01*
X131462306Y-73024074D01*
X131403802Y-73064296D01*
X131378611Y-73069776D01*
X131313984Y-73077026D01*
X131233583Y-73105024D01*
X131147057Y-73135155D01*
X131147055Y-73135156D01*
X131140410Y-73137470D01*
X131134440Y-73141201D01*
X131134439Y-73141201D01*
X130989069Y-73232038D01*
X130989064Y-73232042D01*
X130984541Y-73234868D01*
X130980910Y-73238104D01*
X130544410Y-73674604D01*
X130541174Y-73678235D01*
X130538348Y-73682758D01*
X130538344Y-73682763D01*
X130447507Y-73828133D01*
X130443776Y-73834104D01*
X130383332Y-74007678D01*
X130382547Y-74014676D01*
X130370171Y-74125002D01*
X130342699Y-74190469D01*
X130284195Y-74230690D01*
X130259002Y-74236171D01*
X130149378Y-74248468D01*
X130141678Y-74249332D01*
X130061889Y-74277117D01*
X129974751Y-74307461D01*
X129974749Y-74307462D01*
X129968104Y-74309776D01*
X129962134Y-74313507D01*
X129962133Y-74313507D01*
X129816763Y-74404344D01*
X129816758Y-74404348D01*
X129812235Y-74407174D01*
X129808604Y-74410410D01*
X129372104Y-74846910D01*
X129368868Y-74850541D01*
X129366042Y-74855064D01*
X129366038Y-74855069D01*
X129290053Y-74976671D01*
X129271470Y-75006410D01*
X129269156Y-75013055D01*
X129269155Y-75013057D01*
X129258535Y-75043555D01*
X129211026Y-75179984D01*
X129210241Y-75186982D01*
X129203777Y-75244608D01*
X129176306Y-75310074D01*
X129117802Y-75350296D01*
X129092611Y-75355776D01*
X129027984Y-75363026D01*
X128992709Y-75375310D01*
X128861057Y-75421155D01*
X128861055Y-75421156D01*
X128854410Y-75423470D01*
X128848440Y-75427201D01*
X128848439Y-75427201D01*
X128703069Y-75518038D01*
X128703064Y-75518042D01*
X128698541Y-75520868D01*
X128694910Y-75524104D01*
X128258410Y-75960604D01*
X128255174Y-75964235D01*
X128252348Y-75968758D01*
X128252344Y-75968763D01*
X128165026Y-76108501D01*
X128157776Y-76120104D01*
X128097332Y-76293678D01*
X128076843Y-76476330D01*
X128077628Y-76483328D01*
X128083210Y-76533090D01*
X128070926Y-76603016D01*
X128047090Y-76636231D01*
X127984411Y-76698910D01*
X127922099Y-76732936D01*
X127895316Y-76735815D01*
X126964608Y-76735815D01*
X126896487Y-76715813D01*
X126849994Y-76662157D01*
X126839890Y-76591883D01*
X126857348Y-76543699D01*
X126899004Y-76476120D01*
X126905151Y-76462939D01*
X126954491Y-76314186D01*
X126957358Y-76300810D01*
X126966672Y-76209903D01*
X126966929Y-76204874D01*
X126962525Y-76189876D01*
X126961135Y-76188671D01*
X126953452Y-76187000D01*
X125019115Y-76187000D01*
X125003876Y-76191475D01*
X125002671Y-76192865D01*
X125001000Y-76200548D01*
X125001000Y-76203438D01*
X125001337Y-76209953D01*
X125010894Y-76302057D01*
X125013788Y-76315456D01*
X125063381Y-76464107D01*
X125069555Y-76477286D01*
X125123949Y-76565186D01*
X125142787Y-76633638D01*
X125121626Y-76701408D01*
X125115010Y-76710431D01*
X125095040Y-76735268D01*
X125036770Y-76775822D01*
X124996845Y-76782315D01*
X123775314Y-76782315D01*
X123707193Y-76762313D01*
X123658906Y-76704536D01*
X123655697Y-76696790D01*
X123655697Y-76696789D01*
X123652536Y-76689159D01*
X123577894Y-76591883D01*
X123561305Y-76570264D01*
X123556282Y-76563718D01*
X123430841Y-76467464D01*
X123284762Y-76406956D01*
X123276574Y-76405878D01*
X123171448Y-76392038D01*
X123171447Y-76392038D01*
X123167361Y-76391500D01*
X122428090Y-76391500D01*
X121688640Y-76391501D01*
X121684556Y-76392039D01*
X121684550Y-76392039D01*
X121579425Y-76405878D01*
X121579423Y-76405878D01*
X121571238Y-76406956D01*
X121425159Y-76467464D01*
X121299718Y-76563718D01*
X121294695Y-76570264D01*
X121215465Y-76673519D01*
X121158127Y-76715386D01*
X121115502Y-76722815D01*
X119889699Y-76722815D01*
X119821578Y-76702813D01*
X119773290Y-76645033D01*
X119755886Y-76603016D01*
X119726536Y-76532159D01*
X119630282Y-76406718D01*
X119610450Y-76391500D01*
X119578003Y-76366603D01*
X119504841Y-76310464D01*
X119358762Y-76249956D01*
X119304505Y-76242813D01*
X119245448Y-76235038D01*
X119245447Y-76235038D01*
X119241361Y-76234500D01*
X119018310Y-76234500D01*
X115626501Y-76234501D01*
X115558380Y-76214499D01*
X115511887Y-76160843D01*
X115500501Y-76108501D01*
X115500501Y-75954000D01*
X115520503Y-75885879D01*
X115574159Y-75839386D01*
X115626501Y-75828000D01*
X117329885Y-75828000D01*
X117345124Y-75823525D01*
X117346329Y-75822135D01*
X117348000Y-75814452D01*
X117348000Y-75809884D01*
X117856000Y-75809884D01*
X117860475Y-75825123D01*
X117861865Y-75826328D01*
X117869548Y-75827999D01*
X119746669Y-75827999D01*
X119753490Y-75827629D01*
X119804352Y-75822105D01*
X119819604Y-75818479D01*
X119940054Y-75773324D01*
X119955649Y-75764786D01*
X120057724Y-75688285D01*
X120070285Y-75675724D01*
X120081226Y-75661126D01*
X125001071Y-75661126D01*
X125005475Y-75676124D01*
X125006865Y-75677329D01*
X125014548Y-75679000D01*
X125711885Y-75679000D01*
X125727124Y-75674525D01*
X125728329Y-75673135D01*
X125730000Y-75665452D01*
X125730000Y-75660885D01*
X126238000Y-75660885D01*
X126242475Y-75676124D01*
X126243865Y-75677329D01*
X126251548Y-75679000D01*
X126948885Y-75679000D01*
X126964124Y-75674525D01*
X126965329Y-75673135D01*
X126967000Y-75665452D01*
X126967000Y-75662562D01*
X126966663Y-75656047D01*
X126957106Y-75563943D01*
X126954212Y-75550544D01*
X126904619Y-75401893D01*
X126898445Y-75388714D01*
X126816212Y-75255827D01*
X126807176Y-75244426D01*
X126696571Y-75134014D01*
X126685160Y-75125002D01*
X126552120Y-75042996D01*
X126538939Y-75036849D01*
X126390186Y-74987509D01*
X126376810Y-74984642D01*
X126285903Y-74975328D01*
X126279486Y-74975000D01*
X126256115Y-74975000D01*
X126240876Y-74979475D01*
X126239671Y-74980865D01*
X126238000Y-74988548D01*
X126238000Y-75660885D01*
X125730000Y-75660885D01*
X125730000Y-74993115D01*
X125725525Y-74977876D01*
X125724135Y-74976671D01*
X125716452Y-74975000D01*
X125688562Y-74975000D01*
X125682047Y-74975337D01*
X125589943Y-74984894D01*
X125576544Y-74987788D01*
X125427893Y-75037381D01*
X125414714Y-75043555D01*
X125281827Y-75125788D01*
X125270426Y-75134824D01*
X125160014Y-75245429D01*
X125151002Y-75256840D01*
X125068996Y-75389880D01*
X125062849Y-75403061D01*
X125013509Y-75551814D01*
X125010642Y-75565190D01*
X125001328Y-75656097D01*
X125001071Y-75661126D01*
X120081226Y-75661126D01*
X120146786Y-75573649D01*
X120155324Y-75558054D01*
X120200478Y-75437606D01*
X120204105Y-75422351D01*
X120209631Y-75371486D01*
X120210000Y-75364672D01*
X120210000Y-74917115D01*
X120205525Y-74901876D01*
X120204135Y-74900671D01*
X120196452Y-74899000D01*
X117874115Y-74899000D01*
X117858876Y-74903475D01*
X117857671Y-74904865D01*
X117856000Y-74912548D01*
X117856000Y-75809884D01*
X117348000Y-75809884D01*
X117348000Y-74436669D01*
X121220001Y-74436669D01*
X121220371Y-74443490D01*
X121225895Y-74494352D01*
X121229521Y-74509604D01*
X121274676Y-74630054D01*
X121283214Y-74645649D01*
X121359715Y-74747724D01*
X121372276Y-74760285D01*
X121474351Y-74836786D01*
X121489946Y-74845324D01*
X121610394Y-74890478D01*
X121625649Y-74894105D01*
X121676514Y-74899631D01*
X121683328Y-74900000D01*
X122155885Y-74900000D01*
X122171124Y-74895525D01*
X122172329Y-74894135D01*
X122174000Y-74886452D01*
X122174000Y-74881884D01*
X122682000Y-74881884D01*
X122686475Y-74897123D01*
X122687865Y-74898328D01*
X122695548Y-74899999D01*
X123172669Y-74899999D01*
X123179490Y-74899629D01*
X123230352Y-74894105D01*
X123245604Y-74890479D01*
X123366054Y-74845324D01*
X123381649Y-74836786D01*
X123483724Y-74760285D01*
X123496285Y-74747724D01*
X123572786Y-74645649D01*
X123581324Y-74630054D01*
X123626478Y-74509606D01*
X123630105Y-74494351D01*
X123635631Y-74443486D01*
X123636000Y-74436672D01*
X123636000Y-74126615D01*
X123631525Y-74111376D01*
X123630135Y-74110171D01*
X123622452Y-74108500D01*
X122700115Y-74108500D01*
X122684876Y-74112975D01*
X122683671Y-74114365D01*
X122682000Y-74122048D01*
X122682000Y-74881884D01*
X122174000Y-74881884D01*
X122174000Y-74126615D01*
X122169525Y-74111376D01*
X122168135Y-74110171D01*
X122160452Y-74108500D01*
X121238116Y-74108500D01*
X121222877Y-74112975D01*
X121221672Y-74114365D01*
X121220001Y-74122048D01*
X121220001Y-74436669D01*
X117348000Y-74436669D01*
X117348000Y-74372885D01*
X117856000Y-74372885D01*
X117860475Y-74388124D01*
X117861865Y-74389329D01*
X117869548Y-74391000D01*
X120191884Y-74391000D01*
X120207123Y-74386525D01*
X120208328Y-74385135D01*
X120209999Y-74377452D01*
X120209999Y-73925331D01*
X120209629Y-73918510D01*
X120204105Y-73867648D01*
X120200479Y-73852396D01*
X120155324Y-73731946D01*
X120146786Y-73716351D01*
X120070285Y-73614276D01*
X120057724Y-73601715D01*
X120031932Y-73582385D01*
X121220000Y-73582385D01*
X121224475Y-73597624D01*
X121225865Y-73598829D01*
X121233548Y-73600500D01*
X122155885Y-73600500D01*
X122171124Y-73596025D01*
X122172329Y-73594635D01*
X122174000Y-73586952D01*
X122174000Y-73582385D01*
X122682000Y-73582385D01*
X122686475Y-73597624D01*
X122687865Y-73598829D01*
X122695548Y-73600500D01*
X123617884Y-73600500D01*
X123633123Y-73596025D01*
X123634328Y-73594635D01*
X123635999Y-73586952D01*
X123635999Y-73272331D01*
X123635629Y-73265510D01*
X123630105Y-73214648D01*
X123626479Y-73199396D01*
X123581324Y-73078946D01*
X123572786Y-73063351D01*
X123496285Y-72961276D01*
X123483724Y-72948715D01*
X123381649Y-72872214D01*
X123366054Y-72863676D01*
X123245606Y-72818522D01*
X123230351Y-72814895D01*
X123179486Y-72809369D01*
X123172672Y-72809000D01*
X122700115Y-72809000D01*
X122684876Y-72813475D01*
X122683671Y-72814865D01*
X122682000Y-72822548D01*
X122682000Y-73582385D01*
X122174000Y-73582385D01*
X122174000Y-72827116D01*
X122169525Y-72811877D01*
X122168135Y-72810672D01*
X122160452Y-72809001D01*
X121683331Y-72809001D01*
X121676510Y-72809371D01*
X121625648Y-72814895D01*
X121610396Y-72818521D01*
X121489946Y-72863676D01*
X121474351Y-72872214D01*
X121372276Y-72948715D01*
X121359715Y-72961276D01*
X121283214Y-73063351D01*
X121274676Y-73078946D01*
X121229522Y-73199394D01*
X121225895Y-73214649D01*
X121220369Y-73265514D01*
X121220000Y-73272328D01*
X121220000Y-73582385D01*
X120031932Y-73582385D01*
X119955649Y-73525214D01*
X119940054Y-73516676D01*
X119819606Y-73471522D01*
X119804351Y-73467895D01*
X119753486Y-73462369D01*
X119746672Y-73462000D01*
X117874115Y-73462000D01*
X117858876Y-73466475D01*
X117857671Y-73467865D01*
X117856000Y-73475548D01*
X117856000Y-74372885D01*
X117348000Y-74372885D01*
X117348000Y-73480116D01*
X117343525Y-73464877D01*
X117342135Y-73463672D01*
X117334452Y-73462001D01*
X115626501Y-73462001D01*
X115558380Y-73441999D01*
X115511887Y-73388343D01*
X115500501Y-73336001D01*
X115500501Y-69331613D01*
X131381309Y-69331613D01*
X131381440Y-69333446D01*
X131385690Y-69340060D01*
X131608172Y-69562541D01*
X131613233Y-69567082D01*
X131653121Y-69599153D01*
X131666465Y-69607371D01*
X131783572Y-69660616D01*
X131800627Y-69665603D01*
X131926897Y-69683686D01*
X131944675Y-69683686D01*
X132070945Y-69665603D01*
X132088000Y-69660616D01*
X132205109Y-69607370D01*
X132218453Y-69599153D01*
X132258338Y-69567084D01*
X132263397Y-69562545D01*
X132597557Y-69228384D01*
X132605168Y-69214446D01*
X132605036Y-69212610D01*
X132600787Y-69205998D01*
X132063502Y-68668712D01*
X132049559Y-68661099D01*
X132047725Y-68661230D01*
X132041111Y-68665481D01*
X131388923Y-69317669D01*
X131381309Y-69331613D01*
X115500501Y-69331613D01*
X115500501Y-68420485D01*
X130663696Y-68420485D01*
X130681779Y-68546755D01*
X130686766Y-68563810D01*
X130740011Y-68680916D01*
X130748230Y-68694263D01*
X130780293Y-68734141D01*
X130784848Y-68739218D01*
X131004089Y-68958459D01*
X131018033Y-68966073D01*
X131019866Y-68965942D01*
X131026481Y-68961691D01*
X131678669Y-68309503D01*
X131685047Y-68297823D01*
X132415099Y-68297823D01*
X132415230Y-68299656D01*
X132419481Y-68306271D01*
X132956768Y-68843557D01*
X132970706Y-68851168D01*
X132972542Y-68851036D01*
X132979154Y-68846787D01*
X133316529Y-68509412D01*
X133321090Y-68504330D01*
X133353150Y-68464456D01*
X133361373Y-68451103D01*
X133414616Y-68334000D01*
X133419603Y-68316945D01*
X133437686Y-68190675D01*
X133437686Y-68172897D01*
X133419603Y-68046627D01*
X133414616Y-68029572D01*
X133361371Y-67912466D01*
X133353152Y-67899119D01*
X133321089Y-67859241D01*
X133316534Y-67854164D01*
X133097293Y-67634923D01*
X133083349Y-67627309D01*
X133081516Y-67627440D01*
X133074901Y-67631691D01*
X132422713Y-68283879D01*
X132415099Y-68297823D01*
X131685047Y-68297823D01*
X131686283Y-68295559D01*
X131686152Y-68293726D01*
X131681901Y-68287111D01*
X131144614Y-67749825D01*
X131130676Y-67742214D01*
X131128840Y-67742346D01*
X131122228Y-67746595D01*
X130784853Y-68083970D01*
X130780292Y-68089052D01*
X130748232Y-68128926D01*
X130740009Y-68142279D01*
X130686766Y-68259382D01*
X130681779Y-68276437D01*
X130663696Y-68402707D01*
X130663696Y-68420485D01*
X115500501Y-68420485D01*
X115500501Y-67378936D01*
X131496214Y-67378936D01*
X131496346Y-67380772D01*
X131500595Y-67387384D01*
X132037880Y-67924670D01*
X132051823Y-67932283D01*
X132053657Y-67932152D01*
X132060271Y-67927901D01*
X132524006Y-67464166D01*
X135035023Y-67464166D01*
X135035160Y-67620455D01*
X135036855Y-67634890D01*
X135072943Y-67786955D01*
X135077916Y-67800620D01*
X135148213Y-67940693D01*
X135155643Y-67952179D01*
X135213338Y-68023047D01*
X135216711Y-68026782D01*
X135230433Y-68034275D01*
X135232266Y-68034144D01*
X135238881Y-68029893D01*
X135731970Y-67536804D01*
X135739584Y-67522860D01*
X135739453Y-67521027D01*
X135735202Y-67514412D01*
X135259786Y-67038997D01*
X135245848Y-67031386D01*
X135244012Y-67031518D01*
X135237400Y-67035767D01*
X135217680Y-67055487D01*
X135213315Y-67060328D01*
X135154936Y-67132225D01*
X135147512Y-67143740D01*
X135077468Y-67283920D01*
X135072514Y-67297602D01*
X135036694Y-67449724D01*
X135035023Y-67464166D01*
X132524006Y-67464166D01*
X132712459Y-67275713D01*
X132720073Y-67261769D01*
X132719942Y-67259936D01*
X132715692Y-67253322D01*
X132493210Y-67030841D01*
X132488149Y-67026300D01*
X132448261Y-66994229D01*
X132434917Y-66986011D01*
X132317810Y-66932766D01*
X132300755Y-66927779D01*
X132174485Y-66909696D01*
X132156707Y-66909696D01*
X132030437Y-66927779D01*
X132013382Y-66932766D01*
X131896273Y-66986012D01*
X131882929Y-66994229D01*
X131843044Y-67026298D01*
X131837985Y-67030837D01*
X131503825Y-67364998D01*
X131496214Y-67378936D01*
X115500501Y-67378936D01*
X115500501Y-66668110D01*
X135611387Y-66668110D01*
X135611518Y-66669945D01*
X135615766Y-66676555D01*
X136091181Y-67151971D01*
X136105124Y-67159584D01*
X136106958Y-67159453D01*
X136113572Y-67155202D01*
X136606661Y-66662113D01*
X136614275Y-66648169D01*
X136614144Y-66646336D01*
X136609893Y-66639721D01*
X136607859Y-66637687D01*
X136602997Y-66633303D01*
X136531118Y-66574939D01*
X136519599Y-66567511D01*
X136379420Y-66497468D01*
X136365738Y-66492514D01*
X136213615Y-66456694D01*
X136199173Y-66455023D01*
X136042884Y-66455160D01*
X136028449Y-66456855D01*
X135876384Y-66492943D01*
X135862719Y-66497916D01*
X135722646Y-66568213D01*
X135711160Y-66575643D01*
X135640292Y-66633338D01*
X135635521Y-66637646D01*
X135619001Y-66654166D01*
X135611387Y-66668110D01*
X115500501Y-66668110D01*
X115500501Y-65755126D01*
X148877071Y-65755126D01*
X148881475Y-65770124D01*
X148882865Y-65771329D01*
X148890548Y-65773000D01*
X149587885Y-65773000D01*
X149603124Y-65768525D01*
X149604329Y-65767135D01*
X149606000Y-65759452D01*
X149606000Y-65754885D01*
X150114000Y-65754885D01*
X150118475Y-65770124D01*
X150119865Y-65771329D01*
X150127548Y-65773000D01*
X150815411Y-65773000D01*
X150883532Y-65793002D01*
X150890975Y-65798173D01*
X150971852Y-65858787D01*
X150987446Y-65867324D01*
X151107894Y-65912478D01*
X151123149Y-65916105D01*
X151174014Y-65921631D01*
X151180828Y-65922000D01*
X153053385Y-65922000D01*
X153068624Y-65917525D01*
X153069829Y-65916135D01*
X153071500Y-65908452D01*
X153071500Y-65011115D01*
X153067025Y-64995876D01*
X153065635Y-64994671D01*
X153057952Y-64993000D01*
X150735616Y-64993000D01*
X150720377Y-64997475D01*
X150719172Y-64998865D01*
X150717501Y-65006548D01*
X150717501Y-65089690D01*
X150697499Y-65157811D01*
X150643843Y-65204304D01*
X150573569Y-65214408D01*
X150525385Y-65196950D01*
X150428120Y-65136996D01*
X150414939Y-65130849D01*
X150266186Y-65081509D01*
X150252810Y-65078642D01*
X150161903Y-65069328D01*
X150155486Y-65069000D01*
X150132115Y-65069000D01*
X150116876Y-65073475D01*
X150115671Y-65074865D01*
X150114000Y-65082548D01*
X150114000Y-65754885D01*
X149606000Y-65754885D01*
X149606000Y-65087115D01*
X149601525Y-65071876D01*
X149600135Y-65070671D01*
X149592452Y-65069000D01*
X149564562Y-65069000D01*
X149558047Y-65069337D01*
X149465943Y-65078894D01*
X149452544Y-65081788D01*
X149303893Y-65131381D01*
X149290714Y-65137555D01*
X149157827Y-65219788D01*
X149146426Y-65228824D01*
X149036014Y-65339429D01*
X149027002Y-65350840D01*
X148944996Y-65483880D01*
X148938849Y-65497061D01*
X148889509Y-65645814D01*
X148886642Y-65659190D01*
X148877328Y-65750097D01*
X148877071Y-65755126D01*
X115500501Y-65755126D01*
X115500501Y-64530669D01*
X145858001Y-64530669D01*
X145858371Y-64537490D01*
X145863895Y-64588352D01*
X145867521Y-64603604D01*
X145912676Y-64724054D01*
X145921214Y-64739649D01*
X145997715Y-64841724D01*
X146010276Y-64854285D01*
X146112351Y-64930786D01*
X146127946Y-64939324D01*
X146248394Y-64984478D01*
X146263649Y-64988105D01*
X146314514Y-64993631D01*
X146321328Y-64994000D01*
X146793885Y-64994000D01*
X146809124Y-64989525D01*
X146810329Y-64988135D01*
X146812000Y-64980452D01*
X146812000Y-64975884D01*
X147320000Y-64975884D01*
X147324475Y-64991123D01*
X147325865Y-64992328D01*
X147333548Y-64993999D01*
X147810669Y-64993999D01*
X147817490Y-64993629D01*
X147868352Y-64988105D01*
X147883604Y-64984479D01*
X148004054Y-64939324D01*
X148019649Y-64930786D01*
X148121724Y-64854285D01*
X148134285Y-64841724D01*
X148210786Y-64739649D01*
X148219324Y-64724054D01*
X148264478Y-64603606D01*
X148268105Y-64588351D01*
X148273631Y-64537486D01*
X148274000Y-64530672D01*
X148274000Y-64466885D01*
X150717500Y-64466885D01*
X150721975Y-64482124D01*
X150723365Y-64483329D01*
X150731048Y-64485000D01*
X153053385Y-64485000D01*
X153068624Y-64480525D01*
X153069829Y-64479135D01*
X153071500Y-64471452D01*
X153071500Y-63574116D01*
X153067025Y-63558877D01*
X153065635Y-63557672D01*
X153057952Y-63556001D01*
X151180831Y-63556001D01*
X151174010Y-63556371D01*
X151123148Y-63561895D01*
X151107896Y-63565521D01*
X150987446Y-63610676D01*
X150971851Y-63619214D01*
X150869776Y-63695715D01*
X150857215Y-63708276D01*
X150780714Y-63810351D01*
X150772176Y-63825946D01*
X150727022Y-63946394D01*
X150723395Y-63961649D01*
X150717869Y-64012514D01*
X150717500Y-64019328D01*
X150717500Y-64466885D01*
X148274000Y-64466885D01*
X148274000Y-64220615D01*
X148269525Y-64205376D01*
X148268135Y-64204171D01*
X148260452Y-64202500D01*
X147338115Y-64202500D01*
X147322876Y-64206975D01*
X147321671Y-64208365D01*
X147320000Y-64216048D01*
X147320000Y-64975884D01*
X146812000Y-64975884D01*
X146812000Y-64220615D01*
X146807525Y-64205376D01*
X146806135Y-64204171D01*
X146798452Y-64202500D01*
X145876116Y-64202500D01*
X145860877Y-64206975D01*
X145859672Y-64208365D01*
X145858001Y-64216048D01*
X145858001Y-64530669D01*
X115500501Y-64530669D01*
X115500501Y-63676385D01*
X145858000Y-63676385D01*
X145862475Y-63691624D01*
X145863865Y-63692829D01*
X145871548Y-63694500D01*
X146793885Y-63694500D01*
X146809124Y-63690025D01*
X146810329Y-63688635D01*
X146812000Y-63680952D01*
X146812000Y-63676385D01*
X147320000Y-63676385D01*
X147324475Y-63691624D01*
X147325865Y-63692829D01*
X147333548Y-63694500D01*
X148255884Y-63694500D01*
X148271123Y-63690025D01*
X148272328Y-63688635D01*
X148273999Y-63680952D01*
X148273999Y-63366331D01*
X148273629Y-63359510D01*
X148268105Y-63308648D01*
X148264479Y-63293396D01*
X148219324Y-63172946D01*
X148210786Y-63157351D01*
X148134285Y-63055276D01*
X148121724Y-63042715D01*
X148019649Y-62966214D01*
X148004054Y-62957676D01*
X147883606Y-62912522D01*
X147868351Y-62908895D01*
X147817486Y-62903369D01*
X147810672Y-62903000D01*
X147338115Y-62903000D01*
X147322876Y-62907475D01*
X147321671Y-62908865D01*
X147320000Y-62916548D01*
X147320000Y-63676385D01*
X146812000Y-63676385D01*
X146812000Y-62921116D01*
X146807525Y-62905877D01*
X146806135Y-62904672D01*
X146798452Y-62903001D01*
X146321331Y-62903001D01*
X146314510Y-62903371D01*
X146263648Y-62908895D01*
X146248396Y-62912521D01*
X146127946Y-62957676D01*
X146112351Y-62966214D01*
X146010276Y-63042715D01*
X145997715Y-63055276D01*
X145921214Y-63157351D01*
X145912676Y-63172946D01*
X145867522Y-63293394D01*
X145863895Y-63308649D01*
X145858369Y-63359514D01*
X145858000Y-63366328D01*
X145858000Y-63676385D01*
X115500501Y-63676385D01*
X115500500Y-57002749D01*
X115500560Y-57000000D01*
X118388094Y-57000000D01*
X118407939Y-57252158D01*
X118409093Y-57256965D01*
X118409094Y-57256971D01*
X118446396Y-57412345D01*
X118466986Y-57498106D01*
X118563781Y-57731790D01*
X118695941Y-57947455D01*
X118860210Y-58139790D01*
X119052545Y-58304059D01*
X119268210Y-58436219D01*
X119272780Y-58438112D01*
X119272784Y-58438114D01*
X119488188Y-58527337D01*
X119501894Y-58533014D01*
X119587655Y-58553604D01*
X119743029Y-58590906D01*
X119743035Y-58590907D01*
X119747842Y-58592061D01*
X120000000Y-58611906D01*
X120252158Y-58592061D01*
X120256965Y-58590907D01*
X120256971Y-58590906D01*
X120412345Y-58553604D01*
X120498106Y-58533014D01*
X120511812Y-58527337D01*
X120727216Y-58438114D01*
X120727220Y-58438112D01*
X120731790Y-58436219D01*
X120947455Y-58304059D01*
X121139790Y-58139790D01*
X121304059Y-57947455D01*
X121436219Y-57731790D01*
X121533014Y-57498106D01*
X121553604Y-57412345D01*
X121590906Y-57256971D01*
X121590907Y-57256965D01*
X121592061Y-57252158D01*
X121611906Y-57000000D01*
X149388094Y-57000000D01*
X149407939Y-57252158D01*
X149409093Y-57256965D01*
X149409094Y-57256971D01*
X149446396Y-57412345D01*
X149466986Y-57498106D01*
X149563781Y-57731790D01*
X149695941Y-57947455D01*
X149860210Y-58139790D01*
X150052545Y-58304059D01*
X150268210Y-58436219D01*
X150272780Y-58438112D01*
X150272784Y-58438114D01*
X150488188Y-58527337D01*
X150501894Y-58533014D01*
X150587655Y-58553604D01*
X150743029Y-58590906D01*
X150743035Y-58590907D01*
X150747842Y-58592061D01*
X151000000Y-58611906D01*
X151252158Y-58592061D01*
X151256965Y-58590907D01*
X151256971Y-58590906D01*
X151412345Y-58553604D01*
X151498106Y-58533014D01*
X151511812Y-58527337D01*
X151727216Y-58438114D01*
X151727220Y-58438112D01*
X151731790Y-58436219D01*
X151947455Y-58304059D01*
X152139790Y-58139790D01*
X152304059Y-57947455D01*
X152436219Y-57731790D01*
X152533014Y-57498106D01*
X152553604Y-57412345D01*
X152590906Y-57256971D01*
X152590907Y-57256965D01*
X152592061Y-57252158D01*
X152611906Y-57000000D01*
X152592061Y-56747842D01*
X152590907Y-56743035D01*
X152590906Y-56743029D01*
X152534169Y-56506706D01*
X152533014Y-56501894D01*
X152531120Y-56497321D01*
X152438114Y-56272784D01*
X152438112Y-56272780D01*
X152436219Y-56268210D01*
X152304059Y-56052545D01*
X152139790Y-55860210D01*
X151947455Y-55695941D01*
X151731790Y-55563781D01*
X151727220Y-55561888D01*
X151727216Y-55561886D01*
X151502679Y-55468880D01*
X151502677Y-55468879D01*
X151498106Y-55466986D01*
X151412345Y-55446396D01*
X151256971Y-55409094D01*
X151256965Y-55409093D01*
X151252158Y-55407939D01*
X151000000Y-55388094D01*
X150747842Y-55407939D01*
X150743035Y-55409093D01*
X150743029Y-55409094D01*
X150587655Y-55446396D01*
X150501894Y-55466986D01*
X150497323Y-55468879D01*
X150497321Y-55468880D01*
X150272784Y-55561886D01*
X150272780Y-55561888D01*
X150268210Y-55563781D01*
X150052545Y-55695941D01*
X149860210Y-55860210D01*
X149695941Y-56052545D01*
X149563781Y-56268210D01*
X149561888Y-56272780D01*
X149561886Y-56272784D01*
X149468880Y-56497321D01*
X149466986Y-56501894D01*
X149465831Y-56506706D01*
X149409094Y-56743029D01*
X149409093Y-56743035D01*
X149407939Y-56747842D01*
X149388094Y-57000000D01*
X121611906Y-57000000D01*
X121592061Y-56747842D01*
X121590907Y-56743035D01*
X121590906Y-56743029D01*
X121534169Y-56506706D01*
X121533014Y-56501894D01*
X121531120Y-56497321D01*
X121438114Y-56272784D01*
X121438112Y-56272780D01*
X121436219Y-56268210D01*
X121304059Y-56052545D01*
X121139790Y-55860210D01*
X120947455Y-55695941D01*
X120731790Y-55563781D01*
X120727220Y-55561888D01*
X120727216Y-55561886D01*
X120502679Y-55468880D01*
X120502677Y-55468879D01*
X120498106Y-55466986D01*
X120412345Y-55446396D01*
X120256971Y-55409094D01*
X120256965Y-55409093D01*
X120252158Y-55407939D01*
X120000000Y-55388094D01*
X119747842Y-55407939D01*
X119743035Y-55409093D01*
X119743029Y-55409094D01*
X119587655Y-55446396D01*
X119501894Y-55466986D01*
X119497323Y-55468879D01*
X119497321Y-55468880D01*
X119272784Y-55561886D01*
X119272780Y-55561888D01*
X119268210Y-55563781D01*
X119052545Y-55695941D01*
X118860210Y-55860210D01*
X118695941Y-56052545D01*
X118563781Y-56268210D01*
X118561888Y-56272780D01*
X118561886Y-56272784D01*
X118468880Y-56497321D01*
X118466986Y-56501894D01*
X118465831Y-56506706D01*
X118409094Y-56743029D01*
X118409093Y-56743035D01*
X118407939Y-56747842D01*
X118388094Y-57000000D01*
X115500560Y-57000000D01*
X115500620Y-56997253D01*
X115508977Y-56805845D01*
X115508991Y-56805522D01*
X115518159Y-56607221D01*
X115519103Y-56596594D01*
X115545108Y-56399064D01*
X115545238Y-56398102D01*
X115571970Y-56206467D01*
X115573749Y-56196603D01*
X115617083Y-56001139D01*
X115617443Y-55999564D01*
X115661507Y-55812213D01*
X115663992Y-55803171D01*
X115724324Y-55611821D01*
X115725024Y-55609668D01*
X115772212Y-55468880D01*
X115786044Y-55427610D01*
X115789101Y-55419439D01*
X115791423Y-55413835D01*
X115865977Y-55233845D01*
X115867115Y-55231185D01*
X115944586Y-55055732D01*
X115948072Y-55048476D01*
X115996007Y-54956393D01*
X116040858Y-54870236D01*
X116042544Y-54867105D01*
X116135824Y-54699634D01*
X116139633Y-54693247D01*
X116150936Y-54675505D01*
X116247661Y-54523676D01*
X116249952Y-54520211D01*
X116358242Y-54362128D01*
X116362199Y-54356672D01*
X116484637Y-54197107D01*
X116487616Y-54193376D01*
X116610023Y-54045967D01*
X116614059Y-54041341D01*
X116749892Y-53893105D01*
X116753694Y-53889134D01*
X116889134Y-53753694D01*
X116893105Y-53749892D01*
X117041341Y-53614059D01*
X117045970Y-53610020D01*
X117193385Y-53487608D01*
X117197107Y-53484637D01*
X117356672Y-53362199D01*
X117362128Y-53358242D01*
X117520211Y-53249952D01*
X117523676Y-53247661D01*
X117693247Y-53139633D01*
X117699634Y-53135824D01*
X117867105Y-53042544D01*
X117870236Y-53040858D01*
X117956393Y-52996007D01*
X118048476Y-52948072D01*
X118055738Y-52944583D01*
X118231215Y-52867102D01*
X118233845Y-52865977D01*
X118419446Y-52789098D01*
X118427610Y-52786044D01*
X118609702Y-52725013D01*
X118611785Y-52724336D01*
X118711754Y-52692815D01*
X118803171Y-52663992D01*
X118812213Y-52661507D01*
X118999564Y-52617443D01*
X119001139Y-52617083D01*
X119163749Y-52581033D01*
X119196606Y-52573748D01*
X119206461Y-52571971D01*
X119398154Y-52545231D01*
X119399064Y-52545108D01*
X119596594Y-52519103D01*
X119607220Y-52518159D01*
X119805576Y-52508989D01*
X119805789Y-52508980D01*
X119997253Y-52500620D01*
X120002749Y-52500500D01*
X150997251Y-52500500D01*
X151002747Y-52500620D01*
G37*
G04 #@! TD.AperFunction*
G04 #@! TD*
M02*
