G04 #@! TF.GenerationSoftware,KiCad,Pcbnew,(6.0.4)*
G04 #@! TF.CreationDate,2022-07-08T01:04:45-04:00*
G04 #@! TF.ProjectId,power_divider,706f7765-725f-4646-9976-696465722e6b,Version 2*
G04 #@! TF.SameCoordinates,Original*
G04 #@! TF.FileFunction,Soldermask,Top*
G04 #@! TF.FilePolarity,Negative*
%FSLAX46Y46*%
G04 Gerber Fmt 4.6, Leading zero omitted, Abs format (unit mm)*
G04 Created by KiCad (PCBNEW (6.0.4)) date 2022-07-08 01:04:45*
%MOMM*%
%LPD*%
G01*
G04 APERTURE LIST*
G04 Aperture macros list*
%AMRoundRect*
0 Rectangle with rounded corners*
0 $1 Rounding radius*
0 $2 $3 $4 $5 $6 $7 $8 $9 X,Y pos of 4 corners*
0 Add a 4 corners polygon primitive as box body*
4,1,4,$2,$3,$4,$5,$6,$7,$8,$9,$2,$3,0*
0 Add four circle primitives for the rounded corners*
1,1,$1+$1,$2,$3*
1,1,$1+$1,$4,$5*
1,1,$1+$1,$6,$7*
1,1,$1+$1,$8,$9*
0 Add four rect primitives between the rounded corners*
20,1,$1+$1,$2,$3,$4,$5,0*
20,1,$1+$1,$4,$5,$6,$7,0*
20,1,$1+$1,$6,$7,$8,$9,0*
20,1,$1+$1,$8,$9,$2,$3,0*%
%AMRotRect*
0 Rectangle, with rotation*
0 The origin of the aperture is its center*
0 $1 length*
0 $2 width*
0 $3 Rotation angle, in degrees counterclockwise*
0 Add horizontal line*
21,1,$1,$2,0,0,$3*%
G04 Aperture macros list end*
%ADD10C,3.175465*%
%ADD11RoundRect,0.218750X-0.218750X-0.256250X0.218750X-0.256250X0.218750X0.256250X-0.218750X0.256250X0*%
%ADD12RotRect,1.075000X1.400000X135.000000*%
%ADD13RotRect,1.075000X1.400000X225.000000*%
%ADD14RoundRect,0.218750X-0.335876X-0.026517X-0.026517X-0.335876X0.335876X0.026517X0.026517X0.335876X0*%
%ADD15RoundRect,0.225000X0.250000X-0.225000X0.250000X0.225000X-0.250000X0.225000X-0.250000X-0.225000X0*%
%ADD16RoundRect,0.225000X-0.250000X0.225000X-0.250000X-0.225000X0.250000X-0.225000X0.250000X0.225000X0*%
%ADD17RoundRect,0.225000X-0.017678X0.335876X-0.335876X0.017678X0.017678X-0.335876X0.335876X-0.017678X0*%
%ADD18R,3.600000X1.270000*%
%ADD19R,4.200000X1.350000*%
%ADD20RoundRect,0.218750X0.026517X-0.335876X0.335876X-0.026517X-0.026517X0.335876X-0.335876X0.026517X0*%
%ADD21R,1.400000X1.075000*%
%ADD22RoundRect,0.225000X0.335876X0.017678X0.017678X0.335876X-0.335876X-0.017678X-0.017678X-0.335876X0*%
%ADD23RoundRect,0.200000X-0.275000X0.200000X-0.275000X-0.200000X0.275000X-0.200000X0.275000X0.200000X0*%
G04 APERTURE END LIST*
D10*
X121587732Y-57000000D02*
G75*
G03*
X121587732Y-57000000I-1587732J0D01*
G01*
X121487267Y-99000000D02*
G75*
G03*
X121487267Y-99000000I-1587732J0D01*
G01*
X152587732Y-99000000D02*
G75*
G03*
X152587732Y-99000000I-1587732J0D01*
G01*
X152587732Y-57000000D02*
G75*
G03*
X152587732Y-57000000I-1587732J0D01*
G01*
D11*
G04 #@! TO.C,L8*
X138912500Y-87122000D03*
X140487500Y-87122000D03*
G04 #@! TD*
D12*
G04 #@! TO.C,C7*
X134649309Y-70895309D03*
X132050691Y-68296691D03*
G04 #@! TD*
D13*
G04 #@! TO.C,C6*
X134649309Y-84044691D03*
X132050691Y-86643309D03*
G04 #@! TD*
D14*
G04 #@! TO.C,L6*
X129237153Y-78691153D03*
X130350847Y-79804847D03*
G04 #@! TD*
D11*
G04 #@! TO.C,L4*
X142214500Y-87122000D03*
X143789500Y-87122000D03*
G04 #@! TD*
D15*
G04 #@! TO.C,C2*
X149860000Y-67577000D03*
X149860000Y-66027000D03*
G04 #@! TD*
D16*
G04 #@! TO.C,C3*
X149606000Y-87109000D03*
X149606000Y-88659000D03*
G04 #@! TD*
D17*
G04 #@! TO.C,C8*
X136692008Y-86065992D03*
X135595992Y-87162008D03*
G04 #@! TD*
D18*
G04 #@! TO.C,J3*
X153525500Y-87122000D03*
D19*
X153325500Y-84297000D03*
X153325500Y-89947000D03*
G04 #@! TD*
D15*
G04 #@! TO.C,C1*
X125984000Y-77483000D03*
X125984000Y-75933000D03*
G04 #@! TD*
D18*
G04 #@! TO.C,J1*
X117402000Y-77470000D03*
D19*
X117602000Y-74645000D03*
X117602000Y-80295000D03*
G04 #@! TD*
D20*
G04 #@! TO.C,L5*
X129237153Y-76502847D03*
X130350847Y-75389153D03*
G04 #@! TD*
D21*
G04 #@! TO.C,C4*
X122500000Y-77587500D03*
X122500000Y-73912500D03*
G04 #@! TD*
D22*
G04 #@! TO.C,C5*
X137200008Y-68620008D03*
X136103992Y-67523992D03*
G04 #@! TD*
D14*
G04 #@! TO.C,L2*
X131523153Y-80977153D03*
X132636847Y-82090847D03*
G04 #@! TD*
D18*
G04 #@! TO.C,J2*
X153525500Y-67564000D03*
D19*
X153325500Y-64739000D03*
X153325500Y-70389000D03*
G04 #@! TD*
D21*
G04 #@! TO.C,C9*
X147066000Y-67623500D03*
X147066000Y-63948500D03*
G04 #@! TD*
D20*
G04 #@! TO.C,L1*
X131523153Y-74216847D03*
X132636847Y-73103153D03*
G04 #@! TD*
D23*
G04 #@! TO.C,R1*
X134250000Y-76645000D03*
X134250000Y-78295000D03*
G04 #@! TD*
D21*
G04 #@! TO.C,C10*
X146558000Y-87062500D03*
X146558000Y-90737500D03*
G04 #@! TD*
D11*
G04 #@! TO.C,L7*
X139420500Y-67564000D03*
X140995500Y-67564000D03*
G04 #@! TD*
G04 #@! TO.C,L3*
X142722500Y-67564000D03*
X144297500Y-67564000D03*
G04 #@! TD*
M02*
