M48
; DRILL file {KiCad (6.0.4)} date Fri Jul  8 01:04:07 2022
; FORMAT={-:-/ absolute / inch / decimal}
; #@! TF.CreationDate,2022-07-08T01:04:07-04:00
; #@! TF.GenerationSoftware,Kicad,Pcbnew,(6.0.4)
; #@! TF.FileFunction,MixedPlating,1,4
FMAT,2
INCH
; #@! TA.AperFunction,Plated,PTH,ViaDrill
T1C0.0157
%
G90
G05
T1
X4.6057Y-3.2278
X4.6057Y-3.307
X4.6057Y-3.3856
X4.6062Y-2.7165
X4.6062Y-2.7952
X4.6849Y-3.2278
X4.6849Y-3.307
X4.6849Y-3.3856
X4.6849Y-2.7165
X4.6849Y-2.7952
X4.7634Y-3.1493
X4.7634Y-3.2278
X4.7634Y-3.307
X4.7634Y-3.3856
X4.7637Y-2.7165
X4.7637Y-2.7952
X4.842Y-3.2278
X4.842Y-3.307
X4.842Y-3.3856
X4.8425Y-2.7165
X4.8425Y-2.7952
X4.9212Y-3.1493
X4.9212Y-3.2278
X4.9212Y-3.307
X4.9212Y-3.3856
X4.9212Y-2.7165
X4.9212Y-2.7952
X4.9212Y-2.874
X4.9997Y-3.1493
X4.9997Y-3.2278
X4.9997Y-3.307
X4.9997Y-3.3856
X5.0Y-2.7165
X5.0Y-2.7952
X5.0Y-2.874
X5.0783Y-3.307
X5.0783Y-3.4641
X5.0784Y-2.7165
X5.0784Y-2.7952
X5.0787Y-3.3858
X5.0789Y-3.5428
X5.1177Y-2.5196
X5.1177Y-2.5983
X5.1177Y-2.6771
X5.1571Y-2.7952
X5.1574Y-3.543
X5.1574Y-3.6218
X5.1575Y-3.307
X5.1575Y-3.4641
X5.16Y-3.05
X5.1965Y-2.5196
X5.1965Y-2.5983
X5.225Y-2.985
X5.225Y-3.115
X5.275Y-3.4641
X5.2753Y-2.5196
X5.2753Y-2.5983
X5.2754Y-3.543
X5.2754Y-3.6218
X5.315Y-3.2283
X5.354Y-2.5196
X5.354Y-2.5983
X5.3541Y-2.9134
X5.3541Y-3.1496
X5.3541Y-3.543
X5.3541Y-3.6218
X5.3543Y-2.9921
X5.3543Y-3.0709
X5.3932Y-3.4641
X5.4326Y-3.1496
X5.4326Y-3.3067
X5.4328Y-2.5196
X5.4328Y-2.5983
X5.4328Y-2.9134
X5.4328Y-2.9919
X5.4329Y-3.543
X5.4329Y-3.6218
X5.4331Y-3.0709
X5.5112Y-3.0701
X5.5112Y-3.1496
X5.5112Y-3.2282
X5.5112Y-3.3067
X5.5116Y-2.5196
X5.5116Y-2.8346
X5.5116Y-2.9134
X5.5116Y-2.9919
X5.5117Y-3.543
X5.5117Y-3.6218
X5.5118Y-2.7559
X5.5898Y-3.0701
X5.5898Y-3.1496
X5.5898Y-3.2282
X5.5898Y-3.3067
X5.5899Y-2.52
X5.5904Y-2.8346
X5.5904Y-2.9919
X5.5904Y-3.6218
X5.5906Y-2.7559
X5.5909Y-2.9134
X5.6691Y-2.4408
X5.6691Y-2.5196
X5.6692Y-2.8346
X5.6692Y-2.9134
X5.6692Y-2.9919
X5.6692Y-3.543
X5.6692Y-3.6218
X5.6693Y-3.0701
X5.6693Y-3.1496
X5.6693Y-3.2282
X5.6693Y-3.3067
X5.6693Y-2.7559
X5.7478Y-3.0701
X5.7478Y-3.1496
X5.7478Y-3.2282
X5.7478Y-3.3067
X5.7479Y-2.4408
X5.7479Y-2.8346
X5.7479Y-2.9134
X5.7479Y-2.9919
X5.748Y-3.6218
X5.748Y-2.7559
X5.8264Y-3.0701
X5.8264Y-3.1496
X5.8264Y-3.2282
X5.8267Y-2.4408
X5.8267Y-2.8346
X5.8267Y-2.9134
X5.8267Y-2.9919
X5.8267Y-3.6218
X5.9049Y-3.0701
X5.9049Y-3.1496
X5.9049Y-3.2282
X5.9049Y-3.3067
X5.9054Y-2.4408
X5.9054Y-2.5196
X5.9055Y-2.7558
X5.9055Y-2.8346
X5.9055Y-2.9134
X5.9055Y-2.9919
X5.9055Y-3.6218
X5.9055Y-3.5433
X5.9835Y-3.0701
X5.9835Y-3.1496
X5.984Y-3.6218
X5.9842Y-2.4408
X5.9842Y-2.9134
X5.9842Y-2.9919
X6.0621Y-3.0701
X6.0627Y-2.9134
X6.0627Y-2.9919
X6.0628Y-3.6218
X6.063Y-2.4408
X6.063Y-3.1496
T0
M30
